<?xml version="1.0" encoding="UTF-8"?>
<svg version="1.1" xmlns="http://www.w3.org/2000/svg" width="500" height="500">
<path d="M0 0 C0.7425 0.185625 1.485 0.37125 2.25 0.5625 C4.85082149 1.16604602 4.85082149 1.16604602 6.75978094 0.53573257 C9.74136809 -0.17729294 12.52721273 -0.12959407 15.59350491 -0.13422108 C16.25775639 -0.13657331 16.92200787 -0.13892554 17.60638818 -0.14134905 C19.8420549 -0.14802941 22.07766337 -0.14758111 24.31333923 -0.14717102 C25.92857389 -0.15047026 27.54380773 -0.15419596 29.15904051 -0.1583125 C33.60572489 -0.16833406 38.05239577 -0.17204956 42.49908984 -0.17470181 C47.29209316 -0.17860448 52.08508578 -0.18818295 56.87808228 -0.19691467 C68.45833521 -0.21668169 80.03858902 -0.22674628 91.61885461 -0.23564246 C97.07284928 -0.24002558 102.52684297 -0.24539239 107.98083687 -0.25063133 C126.11304873 -0.26764499 144.24525998 -0.28213847 162.3774786 -0.28938007 C167.08343952 -0.29128996 171.78940043 -0.29321029 176.49536133 -0.29516602 C178.24982067 -0.29589163 178.24982067 -0.29589163 180.03972364 -0.2966319 C198.98087304 -0.30492956 217.92195923 -0.33026142 236.86308103 -0.36274669 C256.31191514 -0.39583056 275.76071714 -0.4138301 295.20957953 -0.41702431 C306.12835042 -0.41918834 317.04702918 -0.42792116 327.96577263 -0.45348549 C337.26630003 -0.47521071 346.56671293 -0.48323397 355.86726283 -0.47351871 C360.61013976 -0.46897911 365.35278051 -0.4708404 370.09562492 -0.49028015 C374.44415705 -0.50794922 378.79228138 -0.50688388 383.14081807 -0.49138286 C384.70754622 -0.48901244 386.27430289 -0.49330078 387.84098756 -0.50521151 C400.32420518 -0.59417777 411.29060655 1.19309749 422 7.94921875 C424.30934024 9.16252446 426.43461778 9.59470524 429 10 C429.33 10.99 429.66 11.98 430 13 C431.32 13 432.64 13 434 13 C434.226875 13.7425 434.45375 14.485 434.6875 15.25 C436.72981806 19.52914259 440.13606738 21.42404492 444 24 C444.33 24.99 444.66 25.98 445 27 C445.639375 27.598125 446.27875 28.19625 446.9375 28.8125 C449.70708718 31.74994095 451 34.93286044 451 39 C451.99 39.66 452.98 40.32 454 41 C454.4765625 42.98828125 454.4765625 42.98828125 454.625 45.3125 C454.79398829 47.68235961 454.97769006 49.9019647 455.5054931 52.2212593 C456.08512193 55.47831843 456.12408623 58.53717855 456.12304783 61.84657001 C456.12420167 62.52600034 456.12535552 63.20543066 456.12654433 63.90544978 C456.12919535 66.18660968 456.12470129 68.46769929 456.12025452 70.74885559 C456.12069053 72.39896638 456.12156599 74.0490771 456.12284368 75.69918746 C456.12508277 80.23712749 456.12107534 84.77504398 456.11606562 89.31298101 C456.11175293 94.20523604 456.11320813 99.0974897 456.1139679 103.98974609 C456.11449261 112.46710844 456.11135128 120.94446309 456.10573006 129.4218235 C456.09760796 141.67871081 456.09499911 153.9355944 456.09374207 166.1924841 C456.09155267 186.07778773 456.0848956 205.96308727 456.07543945 225.84838867 C456.06626245 245.16674784 456.05918302 264.48510589 456.05493164 283.8034668 C456.05453756 285.58921322 456.05453756 285.58921322 456.05413551 287.41103534 C456.05283048 293.38332659 456.05156677 299.35561785 456.05032361 305.32790911 C456.03995448 354.88527557 456.02233919 404.44263759 456 454 C455.34 454 454.68 454 454 454 C452.68795918 458.46009585 452.68795918 458.46009585 451.5625 462.96875 C450.93362256 465.23969631 450.01825275 467.15822049 448.9375 469.25 C448.57527344 469.95640625 448.21304687 470.6628125 447.83984375 471.390625 C447.56269531 471.92171875 447.28554688 472.4528125 447 473 C446.34 473 445.68 473 445 473 C444.773125 473.598125 444.54625 474.19625 444.3125 474.8125 C443 477 443 477 440.72265625 478.359375 C437.80894451 480.11512669 435.59159847 482.10092988 433.125 484.4375 C429.26987918 487.98097931 425.67277899 490.66361051 421 493 C421 493.66 421 494.32 421 495 C420.14074997 495.12308967 419.28149995 495.24617935 418.39621204 495.37299901 C415.00937283 495.99826961 411.92953333 496.95700791 408.66060734 498.0320158 C400.58345875 500.36699888 392.78506171 500.55142185 384.43028259 500.48774719 C382.80071328 500.49021312 381.17114586 500.49443514 379.54158503 500.50024194 C375.10191132 500.51104261 370.66261809 500.49714706 366.22298157 500.47892153 C361.42076435 500.46362024 356.61857639 500.47159063 351.81634521 500.47660828 C342.42642758 500.48281571 333.03665802 500.46789046 323.6467688 500.44588266 C312.70998146 500.42113773 301.77322083 500.41827576 290.83640964 500.41647889 C271.32783786 500.4126075 251.81933263 500.39017168 232.31079102 500.35668945 C213.37914756 500.3242239 194.44753923 500.30300133 175.51586914 500.29516602 C174.34848502 500.29468052 173.18110091 500.29419503 171.97834151 500.29369483 C167.2859959 500.29176612 162.59365029 500.28985399 157.90130466 500.28797873 C139.85407155 500.28045032 121.80684421 500.26482473 103.75961817 500.24748212 C98.30776607 500.24224558 92.85591409 500.23731246 87.40406108 500.2331202 C75.9458949 500.22420486 64.48774554 500.21243362 53.02959418 500.19155417 C48.29177759 500.18295261 43.55397263 500.17586879 38.81614876 500.17303848 C34.48212281 500.17037342 30.14813046 500.16308969 25.81411798 500.15204801 C24.24380095 500.14883996 22.67347945 500.14730955 21.10315918 500.1475983 C18.97332028 500.1477234 16.843583 500.14175347 14.71375942 500.13422108 C13.52940632 500.13243251 12.34505322 500.13064394 11.12481064 500.12880117 C5.7980981 499.90924009 1.4758859 498.98392394 -3 496 C-4.99172182 495.30899447 -6.99161804 494.64097297 -9 494 C-11 493 -11 493 -12.625 491.3125 C-15.24301475 488.76338038 -18.03393408 486.68116116 -20.97265625 484.51953125 C-22.80406425 483.14685743 -24.56512199 481.72720983 -26.3125 480.25 C-28.97470537 477.93828317 -28.97470537 477.93828317 -32 476 C-32.495 474.515 -32.495 474.515 -33 473 C-33.598125 472.443125 -34.19625 471.88625 -34.8125 471.3125 C-39.57796922 466.27471825 -41.2696133 460.81694249 -42 454 C-42.33235751 452.93278811 -42.66471502 451.86557623 -43.00714397 450.76602459 C-44.70441573 444.07257506 -44.27886459 437.10130506 -44.26069641 430.24360657 C-44.26371895 428.62904359 -44.26760894 427.01448205 -44.27228898 425.39992303 C-44.28256488 420.97365411 -44.28038817 416.54746622 -44.27610838 412.12119067 C-44.27364037 407.34325134 -44.28265636 402.56533148 -44.29014587 397.78739929 C-44.30289361 388.43012153 -44.3046864 379.07287246 -44.30234561 369.71558747 C-44.30056207 362.10766712 -44.30231287 354.49975548 -44.30657005 346.89183617 C-44.30716524 345.80873188 -44.30776043 344.72562759 -44.30837366 343.60970196 C-44.30958542 341.40928473 -44.31079956 339.20886751 -44.31201603 337.00845029 C-44.32289224 316.37285561 -44.32072892 295.73727727 -44.31463119 275.10168167 C-44.30946418 256.23516127 -44.32071163 237.36869253 -44.33972941 218.50218234 C-44.35911584 199.12101873 -44.36736225 179.73987955 -44.36360615 160.35870618 C-44.36169505 149.48137696 -44.36417268 138.6040917 -44.37832069 127.7267704 C-44.39024585 118.46477499 -44.39162678 109.20285058 -44.37953053 99.94085417 C-44.37364931 95.2182455 -44.37252138 90.49576662 -44.38453293 85.77316666 C-44.39541711 81.44334986 -44.39225834 77.11377081 -44.37827124 72.78396501 C-44.37563124 71.22409094 -44.37796879 69.66419809 -44.38600711 68.1043425 C-44.50097375 44.1147429 -44.50097375 44.1147429 -38.625 37.4375 C-36.61111403 34.41667105 -35.801098 31.40756477 -34.84375 27.92578125 C-34.5653125 27.29027344 -34.286875 26.65476562 -34 26 C-33.01 25.67 -32.02 25.34 -31 25 C-30.67 24.01 -30.34 23.02 -30 22 C-28.67665751 21.31371516 -27.34127924 20.65053226 -26 20 C-24.49148022 18.63594252 -23.01522738 17.23582986 -21.5625 15.8125 C-15.91038135 10.59126035 -9.87510453 7.35134406 -3 4 C-3 3.34 -3 2.68 -3 2 C-2.34 2 -1.68 2 -1 2 C-0.67 1.34 -0.34 0.68 0 0 Z M446 30 C447 32 447 32 447 32 Z M452 41 C453 43 453 43 453 43 Z M450 461 C451 463 451 463 451 463 Z " fill="#2D94C8" transform="translate(44,0)"/>
<path d="M0 0 C5.01791684 2.41935276 8.49958655 5.9991731 11 11 C11.77431558 18.22694537 10.00988061 22.97506068 6 29 C1.49520911 34.40345918 -3.63139622 39.26322662 -8.63671875 44.1953125 C-10.0830465 45.63738487 -11.52841023 47.08042471 -12.97285461 48.52438354 C-15.98708407 51.53247499 -19.00934773 54.53215626 -22.03833008 57.52539062 C-25.92771892 61.36924466 -29.80142526 65.22844431 -33.66995525 69.09327888 C-36.64675178 72.0656591 -39.62894348 75.03257301 -42.61310768 77.99755478 C-44.04436665 79.41991865 -45.47454373 80.84337202 -46.90363121 82.26791763 C-48.89250244 84.24779281 -50.88789139 86.22083847 -52.88549805 88.19189453 C-53.47825027 88.78398209 -54.0710025 89.37606964 -54.68171692 89.98609924 C-58.77081307 94 -58.77081307 94 -61 94 C-60.80889648 94.70382813 -60.61779297 95.40765625 -60.42089844 96.1328125 C-59.52897698 99.42143746 -58.6394864 102.71071562 -57.75 106 C-57.29947266 107.65902344 -57.29947266 107.65902344 -56.83984375 109.3515625 C-54.67659357 117.36019084 -52.62705415 125.39358373 -50.63293457 133.44567871 C-48.40908326 142.4204306 -46.1721487 151.39194495 -43.93652344 160.36376953 C-43.31133491 162.87462834 -42.68698814 165.38569689 -42.06347656 167.89697266 C-37.66837597 185.68159684 -37.66837597 185.68159684 -32.76953125 203.33154297 C-31.70440803 207.02500642 -30.83095523 210.74815427 -30 214.5 C-28.50328644 221.12472305 -26.7001879 227.57264465 -24.63671875 234.046875 C-23.92709231 237.33814855 -23.96884238 238.8114289 -25 242 C-26.65998718 243.99879725 -28.26607335 245.73393413 -30.12890625 247.51953125 C-30.63800034 248.02296555 -31.14709442 248.52639984 -31.6716156 249.04508972 C-33.29273211 250.64389465 -34.92722134 252.22819606 -36.5625 253.8125 C-37.66692883 254.89685713 -38.77045537 255.98213408 -39.87304688 257.06835938 C-42.57169448 259.72300912 -45.28241911 262.36474126 -48 265 C-50.74709888 261.61558685 -52.69989412 257.92854924 -54.66015625 254.05859375 C-55.17891075 253.04603264 -55.17891075 253.04603264 -55.70814514 252.01301575 C-56.44663534 250.57066159 -57.18346091 249.12745412 -57.91876221 247.68347168 C-59.84354092 243.90376053 -61.78023066 240.13015271 -63.71484375 236.35546875 C-64.09330444 235.61612091 -64.47176514 234.87677307 -64.86169434 234.11502075 C-67.58002793 228.80736758 -70.33230401 223.51895122 -73.125 218.25 C-78.82759921 207.47230768 -84.41058934 196.63265611 -90.00476074 185.79844666 C-92.39744722 181.16492865 -94.79365182 176.53324098 -97.19140625 171.90234375 C-97.87801682 170.57601209 -98.56462171 169.2496775 -99.2512207 167.92333984 C-100.24080906 166.01172286 -101.23049459 164.1001566 -102.22055054 162.18878174 C-103.13179332 160.42943907 -104.04246982 158.66980314 -104.953125 156.91015625 C-105.47036133 155.91121338 -105.98759766 154.91227051 -106.52050781 153.88305664 C-108.03474355 150.93229595 -109.52195882 147.96903312 -111 145 C-119.26721637 151.92035339 -126.92715872 159.45698698 -134.61212826 167.01187515 C-137.01677809 169.37540915 -139.43028892 171.72805086 -141.86743164 174.05810547 C-144.69887973 176.76565753 -147.48881716 179.51385841 -150.27734375 182.265625 C-151.15220932 183.09201477 -152.02707489 183.91840454 -152.92845154 184.76983643 C-156.8846445 188.73828261 -159.5237349 191.43691395 -159.58618164 197.21655273 C-159.4336558 198.81570527 -159.24216665 200.41194828 -159 202 C-158.86368164 203.65866089 -158.86368164 203.65866089 -158.72460938 205.35083008 C-158.53608398 206.79558716 -158.53608398 206.79558716 -158.34375 208.26953125 C-158.20839844 209.34267578 -158.07304687 210.41582031 -157.93359375 211.52148438 C-157.79050781 212.60751953 -157.64742188 213.69355469 -157.5 214.8125 C-157.21603919 217.00616122 -156.93468955 219.20016239 -156.65625 221.39453125 C-156.53056641 222.35206299 -156.40488281 223.30959473 -156.27539062 224.29614258 C-156.13907227 225.634552 -156.13907227 225.634552 -156 227 C-155.85111328 228.267229 -155.85111328 228.267229 -155.69921875 229.56005859 C-156.12612348 233.02311534 -157.67240591 234.24239255 -160.15625 236.64453125 C-161.01347656 237.48564453 -161.87070313 238.32675781 -162.75390625 239.19335938 C-163.66011719 240.05767578 -164.56632812 240.92199219 -165.5 241.8125 C-166.40621094 242.69615234 -167.31242187 243.57980469 -168.24609375 244.49023438 C-170.48660549 246.67178528 -172.7379348 248.8408423 -175 251 C-178.32668972 248.234322 -179.9671086 244.52433188 -181.87109375 240.734375 C-182.23469498 240.02275208 -182.5982962 239.31112915 -182.97291565 238.57794189 C-184.1332535 236.30470182 -185.28570654 234.02757946 -186.4375 231.75 C-187.5871271 229.48744887 -188.73841722 227.22576162 -189.89137268 224.96490479 C-190.60711646 223.56024811 -191.3207437 222.15451012 -192.03184509 220.74749756 C-192.69061198 219.45042694 -193.35730412 218.15734603 -194.03248596 216.8687439 C-194.67332439 215.63097075 -195.28799683 214.37926858 -195.87461853 213.11489868 C-198.45326353 207.92321806 -201.51980545 206.01112169 -206.51171875 203.5546875 C-207.23937943 203.17692169 -207.9670401 202.79915588 -208.7167511 202.40994263 C-211.03141278 201.21321793 -213.35857802 200.04368837 -215.6875 198.875 C-217.23205037 198.08384536 -218.77568045 197.29089135 -220.31835938 196.49609375 C-223.25320517 194.98558263 -226.19214514 193.48356602 -229.13427734 191.98730469 C-233.48485022 189.76463891 -237.75406837 187.41654166 -242 185 C-240.05301568 182.60799069 -238.04243449 180.31029475 -236 178 C-235.55962402 177.4642334 -235.11924805 176.9284668 -234.66552734 176.37646484 C-225.78466278 165.65022583 -225.78466278 165.65022583 -219.921875 164.28125 C-215.29990623 164.60000647 -210.86498752 165.42580012 -206.44100952 166.78787231 C-198.99177465 169.08089857 -191.73649978 170.68919868 -184 169 C-174.43844555 163.74603884 -167.21386722 155.00209303 -160.03240967 146.95501709 C-157.3559528 143.98890349 -154.5955235 141.10316245 -151.84179688 138.20898438 C-146.47738192 132.54674784 -141.21077449 126.80434679 -136 121 C-139.4218852 118.3577156 -142.98482818 116.35156188 -146.8359375 114.41015625 C-147.50241302 114.06996964 -148.16888855 113.72978302 -148.8555603 113.37928772 C-150.283939 112.65025324 -151.71309204 111.92273429 -153.14294434 111.19659424 C-163.42023438 105.97476415 -173.66969284 100.71992223 -183.75 95.125 C-193.55406046 89.69436639 -203.52021801 84.59728993 -213.5 79.5 C-224.08917 74.08723764 -234.6696152 68.66840944 -245.125 63 C-246.44661133 62.2894043 -246.44661133 62.2894043 -247.79492188 61.56445312 C-248.98311523 60.91379883 -248.98311523 60.91379883 -250.1953125 60.25 C-250.86578613 59.88390625 -251.53625977 59.5178125 -252.22705078 59.140625 C-254.08640533 57.94441122 -255.49927058 56.61625946 -257 55 C-253.94145689 51.44344761 -250.81974624 47.96110338 -247.625 44.52636719 C-246.55100768 43.35233351 -245.4956985 42.16090161 -244.4609375 40.95214844 C-237.64674302 33.02409525 -237.64674302 33.02409525 -233 31 C-227.84077005 31.04664589 -223.73069282 32.40304433 -218.96563721 34.2677002 C-215.98681565 35.37746269 -212.9331485 36.06379967 -209.83984375 36.78125 C-187.82054836 42.26067719 -187.82054836 42.26067719 -177.51953125 45.05078125 C-174.93614029 45.74752265 -172.35128985 46.4325153 -169.76171875 47.10546875 C-161.87610481 49.15670837 -154.01347905 51.26700638 -146.17480469 53.49169922 C-134.76264256 56.73057611 -123.3116028 59.73795029 -111.79101562 62.56787109 C-106.86853917 63.77764403 -101.95317863 64.98705894 -97.07421875 66.36328125 C-96.37828613 66.55897705 -95.68235352 66.75467285 -94.96533203 66.95629883 C-93.23573341 67.45050157 -91.51019148 67.95884686 -89.78515625 68.46875 C-86.56815682 69.08237121 -85.11317275 69.03824638 -82 68 C-79.69543605 66.05043529 -77.6380665 64.12345503 -75.54492188 61.96728516 C-74.60490074 61.0233213 -74.60490074 61.0233213 -73.64588928 60.06028748 C-71.57749656 57.97891834 -69.52341815 55.88397349 -67.46875 53.7890625 C-66.03158012 52.33934883 -64.59337312 50.89066263 -63.1541748 49.44296265 C-59.36642009 45.62859779 -55.58995072 41.80326872 -51.81658936 37.97467041 C-45.77937578 31.85124501 -39.72877646 25.74112098 -33.67152405 19.63752365 C-31.55900239 17.50458314 -29.45345754 15.36493072 -27.34851074 13.22451782 C-26.05093432 11.91328113 -24.75313527 10.60226471 -23.45507812 9.29150391 C-22.87311172 8.69606277 -22.29114532 8.10062164 -21.69154358 7.48713684 C-14.91784778 0.67587353 -9.67562416 -1.18155519 0 0 Z " fill="#F3F1F2" transform="translate(367,123)"/>
<path d="M0 0 C2.79859016 0.7210494 5.56563907 1.51283097 8.33520508 2.33813477 C9.77089844 2.74225586 9.77089844 2.74225586 11.2355957 3.15454102 C16.45112937 4.67219098 16.45112937 4.67219098 18.39770508 5.46313477 C18.89270508 6.45313477 18.89270508 6.45313477 19.39770508 7.46313477 C12.11193096 6.84569628 5.65216634 5.23541121 -1.29174805 3.01586914 C-2.42966797 2.67458984 -2.42966797 2.67458984 -3.59057617 2.32641602 C-4.60438354 2.0060437 -4.60438354 2.0060437 -5.63867188 1.67919922 C-8.31813878 1.38436791 -9.3505372 1.98446007 -11.60229492 3.46313477 C-13.31092829 5.00889103 -14.96734231 6.61312176 -16.58666992 8.25219727 C-17.27735565 8.94712784 -17.27735565 8.94712784 -17.98199463 9.65609741 C-19.4435457 11.12879375 -20.8979666 12.60830879 -22.35229492 14.08813477 C-23.34532103 15.09119798 -24.33880581 16.09380734 -25.33276367 17.09594727 C-27.76127433 19.54644312 -30.18344168 22.00310146 -32.60229492 24.46313477 C-29.60923103 26.82705249 -26.53749895 28.67652361 -23.17651367 30.47485352 C-22.0854834 31.05968506 -20.99445313 31.6445166 -19.87036133 32.24707031 C-18.67694112 32.88178348 -17.48341595 33.51629934 -16.28979492 34.15063477 C-15.04416496 34.81570933 -13.79855998 35.4808307 -12.55297852 36.14599609 C-2.66154938 41.41654809 7.29540482 46.55693502 17.26687622 51.67398071 C26.13342919 56.22584712 34.92188585 60.89456985 43.64379883 65.71875 C58.04971127 73.63153555 72.76008383 80.99083502 87.39770508 88.46313477 C87.39770508 92.4676284 86.05811775 93.32043151 83.38818359 96.25756836 C82.50787979 97.22802094 81.62757599 98.19847351 80.72059631 99.19833374 C77.15560933 103.04624055 73.55261855 106.85829944 69.91774082 110.64023399 C67.16483092 113.50506894 64.44552836 116.38949102 61.79150391 119.34643555 C44.72855642 138.30811304 44.72855642 138.30811304 35.95181274 140.20974731 C28.4106733 140.4766451 21.52367202 138.76685855 14.39770508 136.46313477 C9.51134983 134.99815367 5.45738679 134.21774788 0.39770508 135.46313477 C-2.16498564 137.13004966 -2.16498564 137.13004966 -4.37182617 139.41625977 C-5.60944702 140.61472534 -5.60944702 140.61472534 -6.87207031 141.83740234 C-9.99940418 145.06940139 -13.01139603 148.38638752 -15.94506836 151.79492188 C-16.49195312 152.34543213 -17.03883789 152.89594238 -17.60229492 153.46313477 C-18.26229492 153.46313477 -18.92229492 153.46313477 -19.60229492 153.46313477 C-18.42973784 150.1258569 -17.41361088 147.6887599 -14.60229492 145.46313477 C-13.94229492 145.46313477 -13.28229492 145.46313477 -12.60229492 145.46313477 C-12.60229492 144.80313477 -12.60229492 144.14313477 -12.60229492 143.46313477 C-10.95776367 141.84204102 -10.95776367 141.84204102 -8.78979492 140.02563477 C-5.83470133 137.57809917 -5.83470133 137.57809917 -3.25854492 134.76000977 C1.74768153 130.84004 13.5661609 133.39829069 19.71459961 134.13500977 C22.94622023 134.552092 26.17179008 135.00378117 29.39770508 135.46313477 C35.44982306 136.43729579 35.44982306 136.43729579 41.39770508 135.46313477 C42.10650756 134.1517152 42.76997623 132.81523636 43.39770508 131.46313477 C44.69447327 129.93258667 44.69447327 129.93258667 46.17919922 128.47045898 C46.73640152 127.91663544 47.29360382 127.36281189 47.86769104 126.79220581 C48.46669724 126.20665924 49.06570343 125.62111267 49.68286133 125.01782227 C50.29914902 124.40673615 50.91543671 123.79565002 51.55039978 123.16604614 C53.51563832 121.21859095 55.48744272 119.27796567 57.46020508 117.33813477 C59.43564783 115.39029876 61.40961859 113.4410273 63.38072205 111.48880005 C64.60663569 110.27515548 65.83521237 109.06419392 67.06666565 107.85617065 C70.10902534 104.94863036 70.10902534 104.94863036 72.39770508 101.46313477 C73.38770508 101.46313477 74.37770508 101.46313477 75.39770508 101.46313477 C75.89270508 99.48313477 75.89270508 99.48313477 76.39770508 97.46313477 C77.38770508 97.46313477 78.37770508 97.46313477 79.39770508 97.46313477 C80.38770508 95.48313477 80.38770508 95.48313477 81.39770508 93.46313477 C82.05770508 93.46313477 82.71770508 93.46313477 83.39770508 93.46313477 C83.39770508 92.14313477 83.39770508 90.82313477 83.39770508 89.46313477 C82.81617676 89.16246094 82.23464844 88.86178711 81.63549805 88.55200195 C70.64122465 82.86019068 59.68500097 77.11398294 48.83520508 71.15063477 C41.92548653 67.35552191 34.9880539 63.69572631 27.91333008 60.21704102 C22.92419332 57.72801612 18.00045347 55.11978461 13.07250977 52.51220703 C8.55506303 50.12281 4.03007186 47.74961979 -0.50854492 45.40063477 C-10.34586488 40.30663496 -20.13456344 35.22400867 -29.60229492 29.46313477 C-31.26875676 28.46279347 -32.9353666 27.46269855 -34.60229492 26.46313477 C-34.05713963 22.36968798 -31.89364115 20.19958408 -29.16479492 17.21313477 C-27.96016602 15.87508789 -27.96016602 15.87508789 -26.73120117 14.51000977 C-24.60229492 12.46313477 -24.60229492 12.46313477 -22.60229492 12.46313477 C-22.60229492 11.80313477 -22.60229492 11.14313477 -22.60229492 10.46313477 C-21.94229492 10.46313477 -21.28229492 10.46313477 -20.60229492 10.46313477 C-20.60229492 9.80313477 -20.60229492 9.14313477 -20.60229492 8.46313477 C-18.41479492 6.08813477 -18.41479492 6.08813477 -15.60229492 3.46313477 C-14.83916992 2.70000977 -14.07604492 1.93688477 -13.28979492 1.15063477 C-9.0237993 -1.52801365 -4.77404882 -0.9849079 0 0 Z " fill="#519FC0" transform="translate(143.602294921875,153.536865234375)"/>
<path d="M0 0 C1.17046875 0.01804687 2.3409375 0.03609375 3.546875 0.0546875 C4.88492188 0.08949219 4.88492188 0.08949219 6.25 0.125 C6.25 0.785 6.25 1.445 6.25 2.125 C6.806875 2.186875 7.36375 2.24875 7.9375 2.3125 C12.29207909 3.84248725 14.66501872 7.19709866 17.0625 11 C18.83144933 15.65512982 18.85283752 19.35416478 17.25 24.0625 C16.92 24.743125 16.59 25.42375 16.25 26.125 C15.92 26.125 15.59 26.125 15.25 26.125 C15.29640625 25.25617188 15.3428125 24.38734375 15.390625 23.4921875 C15.66979481 16.32260651 15.66979481 16.32260651 13.625 9.5625 C8.1008688 3.89299693 4.21828756 2.66790064 -3.5546875 2.3984375 C-10.76904194 4.03886528 -16.30884497 10.40627453 -21.29858398 15.60522461 C-21.89977051 16.22218201 -22.50095703 16.8391394 -23.12036133 17.47479248 C-24.411703 18.80025172 -25.70089445 20.12780873 -26.98809624 21.45728874 C-29.73193833 24.28592973 -32.49504855 27.0954267 -35.25705814 29.90631199 C-40.38578171 35.12622139 -45.50627663 40.35361082 -50.59399414 45.61352539 C-54.14773075 49.28604284 -57.72541671 52.9336582 -61.32014656 56.56604195 C-62.6812237 57.95058159 -64.03318977 59.34414058 -65.37560844 60.74677849 C-67.25185935 62.70509835 -69.15713496 64.63008535 -71.07202148 66.55053711 C-71.61619217 67.13380264 -72.16036285 67.71706818 -72.72102356 68.31800842 C-75.11477155 70.66280711 -76.63285547 72.05719809 -80.05713749 72.26502514 C-82.34778119 72.0277447 -84.50966256 71.65171546 -86.75 71.125 C-87.78390869 70.90577881 -88.81781738 70.68655762 -89.88305664 70.46069336 C-90.79949951 70.21456299 -91.71594238 69.96843262 -92.66015625 69.71484375 C-93.66884766 69.44736328 -94.67753906 69.17988281 -95.71679688 68.90429688 C-96.73837891 68.62650391 -97.75996094 68.34871094 -98.8125 68.0625 C-99.86888672 67.78083984 -100.92527344 67.49917969 -102.01367188 67.20898438 C-104.59405915 66.52010271 -107.17270414 65.82534171 -109.75 65.125 C-109.75 64.795 -109.75 64.465 -109.75 64.125 C-104.16541206 63.82038611 -100.14426525 64.47716936 -94.91015625 66.3984375 C-91.90909922 67.40783462 -88.88306991 67.71886131 -85.75 68.125 C-83.38829915 68.71890512 -81.07980808 69.41179344 -78.75 70.125 C-78.75 69.465 -78.75 68.805 -78.75 68.125 C-78.09 68.125 -77.43 68.125 -76.75 68.125 C-76.75 67.465 -76.75 66.805 -76.75 66.125 C-75.31640625 64.71484375 -75.31640625 64.71484375 -73.3125 63.0625 C-68.52750485 58.99864773 -64.15215637 54.59514334 -59.75 50.125 C-58.904375 49.3 -58.05875 48.475 -57.1875 47.625 C-54.15213731 44.5118075 -51.34115242 41.22514614 -48.51953125 37.91796875 C-47.93558594 37.32628906 -47.35164063 36.73460937 -46.75 36.125 C-46.09 36.125 -45.43 36.125 -44.75 36.125 C-44.75 35.465 -44.75 34.805 -44.75 34.125 C-44.069375 33.58875 -43.38875 33.0525 -42.6875 32.5 C-40.21201587 30.49854475 -38.41015773 28.6572746 -36.375 26.25 C-33.59205033 22.98305909 -30.66478294 20.26445751 -27.35546875 17.546875 C-25.40153313 15.81638214 -23.88396668 13.81254802 -22.265625 11.7734375 C-15.91021631 4.86111155 -9.49748042 -0.18994961 0 0 Z " fill="#3D82B2" transform="translate(361.75,120.875)"/>
<path d="M0 0 C0.33 0 0.66 0 1 0 C1 6.6 1 13.2 1 20 C0.34 20 -0.32 20 -1 20 C-2.31204082 24.46009585 -2.31204082 24.46009585 -3.4375 28.96875 C-4.06637744 31.23969631 -4.98174725 33.15822049 -6.0625 35.25 C-6.42472656 35.95640625 -6.78695312 36.6628125 -7.16015625 37.390625 C-7.43730469 37.92171875 -7.71445312 38.4528125 -8 39 C-8.66 39 -9.32 39 -10 39 C-10.226875 39.598125 -10.45375 40.19625 -10.6875 40.8125 C-12 43 -12 43 -14.27734375 44.359375 C-17.19105549 46.11512669 -19.40840153 48.10092988 -21.875 50.4375 C-25.73012082 53.98097931 -29.32722101 56.66361051 -34 59 C-34 59.66 -34 60.32 -34 61 C-34.85207031 61.12246094 -35.70414062 61.24492187 -36.58203125 61.37109375 C-40.07503645 62.01380671 -43.3048479 62.98637693 -46.6875 64.0625 C-52.96018517 65.90897587 -58.49761525 66.47772623 -65 66 C-61.77988731 64.22391866 -58.62494843 63.26448902 -55.0625 62.375 C-54.04285156 62.11460937 -53.02320313 61.85421875 -51.97265625 61.5859375 C-49.21832521 61.04303388 -46.79607237 60.8867153 -44 61 C-44 60.34 -44 59.68 -44 59 C-42.865625 58.62875 -41.73125 58.2575 -40.5625 57.875 C-32.83657376 54.95904195 -21.80604471 48.61208942 -18 41 C-17.34 41 -16.68 41 -16 41 C-15.71769531 40.40960938 -15.43539062 39.81921875 -15.14453125 39.2109375 C-14.10964398 37.21180372 -12.96888556 35.46986129 -11.6875 33.625 C-5.40969997 23.6359123 -2.84252653 11.33834605 0 0 Z M-5 27 C-4 29 -4 29 -4 29 Z " fill="#094898" transform="translate(499,434)"/>
<path d="M0 0 C3.59971385 1.75091822 7.18060194 3.53192692 10.74609375 5.3515625 C14.6425093 7.33832975 18.57996783 9.21921233 22.53515625 11.0859375 C35.32649732 17.29796547 44.51926881 21.93610345 49.87255859 35.37646484 C52.12134966 40.60935977 54.91256325 45.59533746 57.57580566 50.62686157 C59.15572465 53.62617642 60.70418591 56.64121908 62.25390625 59.65625 C62.78314697 60.68556641 63.3123877 61.71488281 63.85766602 62.77539062 C64.23463623 63.50951172 64.61160645 64.24363281 65 65 C65.64485352 64.44711304 65.64485352 64.44711304 66.30273438 63.88305664 C67.18928711 63.12303345 67.18928711 63.12303345 68.09375 62.34765625 C69.0528125 61.52225342 69.0528125 61.52225342 70.03125 60.68017578 C71.25121856 59.63902701 72.47899857 58.60686736 73.71875 57.58935547 C80.8665032 51.89592322 80.8665032 51.89592322 84.6171875 43.9296875 C84.35235196 40.52099774 83.7288616 37.34031047 83 34 C82.58637673 31.11076993 82.26157959 28.21298046 81.9375 25.3125 C81.85290527 24.58683838 81.76831055 23.86117676 81.68115234 23.11352539 C79.96958191 8.31198582 79.96958191 8.31198582 82.34375 5.2890625 C84 3.875 84 3.875 87 2 C86.75 3.875 86.75 3.875 86 6 C83.953125 7.1328125 83.953125 7.1328125 82 8 C83.11785226 17.82319531 83.11785226 17.82319531 85.0625 27.5 C85.38027616 28.99889111 85.69205245 30.49905878 86 32 C86.41572266 33.67642578 86.41572266 33.67642578 86.83984375 35.38671875 C88.46396195 44.7374111 88.46396195 44.7374111 85.72900391 48.96435547 C82.39536493 52.88703946 78.58465779 56.21864315 74.64794922 59.51977539 C72.48495952 61.46262081 70.80774183 63.73105753 69 66 C66.25 66.8125 66.25 66.8125 64 67 C60.03810217 62.76486783 58.56818272 58.452999 57 53 C56.34 53 55.68 53 55 53 C54.78085938 52.39414062 54.56171875 51.78828125 54.3359375 51.1640625 C52.54147749 46.42260311 50.57090145 42.11404863 47.875 37.8125 C45.42315091 33.89325638 43.9797886 30.50702755 43 26 C42.34 26 41.68 26 41 26 C40.42636719 25.40445312 39.85273438 24.80890625 39.26171875 24.1953125 C36.64072024 21.65126904 34.11588455 20.41201936 30.8125 18.875 C25.10567823 16.21135647 25.10567823 16.21135647 24 14 C23.27683594 13.86335938 22.55367187 13.72671875 21.80859375 13.5859375 C18.38352029 12.8713881 16.04442398 11.44408876 13.0625 9.625 C9.96684441 7.74763467 6.96995831 5.98605839 3.68359375 4.4609375 C1 3 1 3 0 0 Z " fill="#5BACC6" transform="translate(126,308)"/>
<path d="M0 0 C11.33611385 -0.81783587 21.38539714 1.8837564 31 7.94921875 C33.30934024 9.16252446 35.43461778 9.59470524 38 10 C38.495 11.485 38.495 11.485 39 13 C40.32 13 41.64 13 43 13 C43.3403125 14.11375 43.3403125 14.11375 43.6875 15.25 C45.72981806 19.52914259 49.13606738 21.42404492 53 24 C53.495 25.485 53.495 25.485 54 27 C54.639375 27.598125 55.27875 28.19625 55.9375 28.8125 C58.70708718 31.74994095 60 34.93286044 60 39 C60.99 39.66 61.98 40.32 63 41 C63.4765625 42.98828125 63.4765625 42.98828125 63.625 45.3125 C63.79885259 47.75057557 64.00776334 50.03630674 64.51953125 52.4296875 C65.0522894 55.27972704 65.09740169 57.91565959 65.0625 60.8125 C65.05347656 61.78832031 65.04445313 62.76414063 65.03515625 63.76953125 C65.02355469 64.50558594 65.01195312 65.24164063 65 66 C63.23823164 62.7981775 62.26648671 59.66393208 61.375 56.125 C61.11460937 55.11695313 60.85421875 54.10890625 60.5859375 53.0703125 C59.99417754 49.9694903 59.89661867 47.14843131 60 44 C59.34 44 58.68 44 58 44 C57.70609375 43.09121094 57.70609375 43.09121094 57.40625 42.1640625 C53.87194753 32.26192197 47.10433599 23.70915916 39 17 C38.01 16.67 37.02 16.34 36 16 C35.40960938 15.38382813 34.81921875 14.76765625 34.2109375 14.1328125 C31.5568802 11.57253814 28.98768668 10.37214022 25.625 8.875 C24.52414062 8.37742187 23.42328125 7.87984375 22.2890625 7.3671875 C17.19471955 5.24958651 12.43012569 3.88655113 7 3 C4.64755073 2.38693746 2.3291961 1.69875883 0 1 C0 0.67 0 0.34 0 0 Z M55 30 C56 32 56 32 56 32 Z M61 41 C62 43 62 43 62 43 Z " fill="#0D4D98" transform="translate(435,0)"/>
<path d="M0 0 C2.55205914 4.90208026 3.80116453 9.97756381 4.875 15.375 C8.17949592 30.39774686 17.50019504 43.35598165 30 52 C30.99 52.70125 31.98 53.4025 33 54.125 C33.99 54.74375 34.98 55.3625 36 56 C36.53496094 56.33902344 37.06992187 56.67804688 37.62109375 57.02734375 C43.33929019 60.28610086 49.50392468 61.26046018 55.90234375 62.38671875 C59 63 59 63 60 64 C61.34747084 64.23075082 62.70377565 64.41153063 64.0625 64.5625 C65.361875 64.706875 66.66125 64.85125 68 65 C68 65.33 68 65.66 68 66 C65.4374282 66.02710123 62.87514635 66.04688771 60.3125 66.0625 C59.59126953 66.07087891 58.87003906 66.07925781 58.12695312 66.08789062 C51.69672267 66.11725241 46.43043396 65.62028931 41 62 C39.00827818 61.30899447 37.00838196 60.64097297 35 60 C33 59 33 59 31.375 57.3125 C28.75698525 54.76338038 25.96606592 52.68116116 23.02734375 50.51953125 C21.19593575 49.14685743 19.43487801 47.72720983 17.6875 46.25 C15.02529463 43.93828317 15.02529463 43.93828317 12 42 C11.505 40.515 11.505 40.515 11 39 C10.401875 38.443125 9.80375 37.88625 9.1875 37.3125 C4.42203078 32.27471825 2.7303867 26.81694249 2 20 C1.4740625 18.1746875 1.4740625 18.1746875 0.9375 16.3125 C-0.48990493 10.95180147 -0.16508513 5.50283755 0 0 Z " fill="#66D3DA" transform="translate(0,434)"/>
<path d="M0 0 C2.79859016 0.7210494 5.56563907 1.51283097 8.33520508 2.33813477 C9.77089844 2.74225586 9.77089844 2.74225586 11.2355957 3.15454102 C16.45112937 4.67219098 16.45112937 4.67219098 18.39770508 5.46313477 C18.89270508 6.45313477 18.89270508 6.45313477 19.39770508 7.46313477 C12.11193096 6.84569628 5.65216634 5.23541121 -1.29174805 3.01586914 C-2.42966797 2.67458984 -2.42966797 2.67458984 -3.59057617 2.32641602 C-4.60438354 2.0060437 -4.60438354 2.0060437 -5.63867188 1.67919922 C-8.31813878 1.38436791 -9.3505372 1.98446007 -11.60229492 3.46313477 C-13.31092829 5.00889103 -14.96734231 6.61312176 -16.58666992 8.25219727 C-17.27735565 8.94712784 -17.27735565 8.94712784 -17.98199463 9.65609741 C-19.4435457 11.12879375 -20.8979666 12.60830879 -22.35229492 14.08813477 C-23.34532103 15.09119798 -24.33880581 16.09380734 -25.33276367 17.09594727 C-27.76127433 19.54644312 -30.18344168 22.00310146 -32.60229492 24.46313477 C-29.60923103 26.82705249 -26.53749895 28.67652361 -23.17651367 30.47485352 C-21.53960571 31.35234253 -21.53960571 31.35234253 -19.86962891 32.24755859 C-18.67646994 32.88214117 -17.48318846 33.51649344 -16.28979492 34.15063477 C-15.0463712 34.81426129 -13.8029633 35.47791746 -12.55957031 36.14160156 C-1.32067794 42.12787958 9.99375307 47.96639906 21.3187561 53.78761292 C21.94551239 54.10979294 22.57226868 54.43197296 23.21801758 54.76391602 C24.14135391 55.2385453 24.14135391 55.2385453 25.08334351 55.72276306 C33.21971982 59.90944015 41.31257831 64.17853256 49.39770508 68.46313477 C46.98079115 69.33243258 45.77393333 69.59652117 43.31738281 68.72558594 C42.5794751 68.32315674 41.84156738 67.92072754 41.08129883 67.50610352 C40.2448584 67.05823486 39.40841797 66.61036621 38.54663086 66.14892578 C37.65186035 65.65448975 36.75708984 65.16005371 35.83520508 64.65063477 C33.92508621 63.62191952 32.01492922 62.59327506 30.10473633 61.56469727 C29.14390137 61.04166016 28.18306641 60.51862305 27.19311523 59.97973633 C23.15644241 57.78970911 19.09028428 55.65751711 15.02270508 53.52563477 C13.47190912 52.70795432 11.92112819 51.89024539 10.37036133 51.07250977 C6.76017735 49.173414 3.1414731 47.29141573 -0.48120117 45.41625977 C-10.32694558 40.31581536 -20.12562537 35.22944725 -29.60229492 29.46313477 C-31.26875676 28.46279347 -32.9353666 27.46269855 -34.60229492 26.46313477 C-34.05713963 22.36968798 -31.89364115 20.19958408 -29.16479492 17.21313477 C-27.96016602 15.87508789 -27.96016602 15.87508789 -26.73120117 14.51000977 C-24.60229492 12.46313477 -24.60229492 12.46313477 -22.60229492 12.46313477 C-22.60229492 11.80313477 -22.60229492 11.14313477 -22.60229492 10.46313477 C-21.94229492 10.46313477 -21.28229492 10.46313477 -20.60229492 10.46313477 C-20.60229492 9.80313477 -20.60229492 9.14313477 -20.60229492 8.46313477 C-18.41479492 6.08813477 -18.41479492 6.08813477 -15.60229492 3.46313477 C-14.83916992 2.70000977 -14.07604492 1.93688477 -13.28979492 1.15063477 C-9.0237993 -1.52801365 -4.77404882 -0.9849079 0 0 Z " fill="#5CB1C9" transform="translate(143.602294921875,153.536865234375)"/>
<path d="M0 0 C0.7425 0.185625 1.485 0.37125 2.25 0.5625 C4.84990463 1.16751938 4.84990463 1.16751938 6.75 0.53125 C9.78194306 -0.18462544 12.63918548 -0.09360815 15.75 -0.0625 C17.50570312 -0.04896484 17.50570312 -0.04896484 19.296875 -0.03515625 C20.18890625 -0.02355469 21.0809375 -0.01195312 22 0 C22 0.33 22 0.66 22 1 C21.09121094 1.14695313 20.18242188 1.29390625 19.24609375 1.4453125 C-0.50190066 4.96956996 -17.19559429 13.10738723 -30 29 C-32.4290849 32.86076559 -34.29452906 36.77577305 -36 41 C-36.43505859 41.97453125 -36.43505859 41.97453125 -36.87890625 42.96875 C-39.81214197 49.97165831 -41.23971537 57.63718509 -43 65 C-43.33 65 -43.66 65 -44 65 C-44.46172201 56.46669319 -44.60221958 44.22979498 -38.625 37.4375 C-36.61111403 34.41667105 -35.801098 31.40756477 -34.84375 27.92578125 C-34.5653125 27.29027344 -34.286875 26.65476562 -34 26 C-33.01 25.67 -32.02 25.34 -31 25 C-30.67 24.01 -30.34 23.02 -30 22 C-28.67665751 21.31371516 -27.34127924 20.65053226 -26 20 C-24.49148022 18.63594252 -23.01522738 17.23582986 -21.5625 15.8125 C-15.91038135 10.59126035 -9.87510453 7.35134406 -3 4 C-3 3.34 -3 2.68 -3 2 C-2.34 2 -1.68 2 -1 2 C-0.67 1.34 -0.34 0.68 0 0 Z " fill="#65D0D9" transform="translate(44,0)"/>
<path d="M0 0 C0.99 0.495 0.99 0.495 2 1 C0.34962522 5.32365651 -2.94512127 8.15946747 -6.19384766 11.30981445 C-6.8281218 11.9331366 -7.46239594 12.55645874 -8.1158905 13.19866943 C-9.49162919 14.55008156 -10.86948247 15.89934365 -12.2491951 17.24669838 C-14.43175345 19.38057763 -16.60584512 21.52273331 -18.7774353 23.66777039 C-24.95147687 29.76547455 -31.1319009 35.85644904 -37.33886719 41.9206543 C-41.13632511 45.63196444 -44.91651451 49.36012123 -48.6860466 53.09978294 C-50.12541113 54.52118955 -51.57118554 55.93613547 -53.02339554 57.34441566 C-55.05361612 59.31443251 -57.06114505 61.30516395 -59.06494141 63.30200195 C-59.66959732 63.87834885 -60.27425323 64.45469574 -60.89723206 65.04850769 C-63.91559707 68.10422476 -64.92971194 69.33997494 -65.40061951 73.76193237 C-65.05719513 76.53771169 -64.64648942 79.08733951 -63.87109375 81.76953125 C-63.64099609 82.59517578 -63.41089844 83.42082031 -63.17382812 84.27148438 C-62.93083984 85.11001953 -62.68785156 85.94855469 -62.4375 86.8125 C-61.95057335 88.50466546 -61.46977722 90.198611 -60.99609375 91.89453125 C-60.78138428 92.63550049 -60.5666748 93.37646973 -60.34545898 94.13989258 C-60 96 -60 96 -61 98 C-63.67360724 93.11537446 -65.23833433 88.27445756 -66.6875 82.9375 C-66.91244141 82.14794922 -67.13738281 81.35839844 -67.36914062 80.54492188 C-67.58119141 79.77599609 -67.79324219 79.00707031 -68.01171875 78.21484375 C-68.20209717 77.52511475 -68.39247559 76.83538574 -68.58862305 76.12475586 C-69.07256777 73.62518854 -69.22261127 71.54352527 -69 69 C-67.71980286 67.44560242 -67.71980286 67.44560242 -65.83520508 66.0144043 C-61.94108652 62.84275177 -58.36241912 59.49145762 -54.81518555 55.94458008 C-54.2490495 55.38042735 -53.68291346 54.81627462 -53.09962177 54.23502636 C-51.27639309 52.4154419 -49.45642859 50.59263428 -47.63671875 48.76953125 C-46.35511096 47.48859825 -45.07335486 46.20781363 -43.79145813 44.9271698 C-41.11968084 42.25685912 -38.44970132 39.5847675 -35.78100586 36.91137695 C-32.36367906 33.48833026 -28.94185063 30.06982426 -25.51867962 26.65262318 C-22.8771833 24.01474079 -20.23807375 21.37448089 -17.59967995 18.73349571 C-16.33854328 17.47169328 -15.07666699 16.21062963 -13.8140316 14.95032692 C-12.05286883 13.19170684 -10.29494843 11.42990783 -8.5378418 9.66723633 C-8.01885315 9.15027191 -7.4998645 8.6333075 -6.96514893 8.10067749 C-4.4156009 5.53616999 -2.07751032 2.96317406 0 0 Z " fill="#2A72AA" transform="translate(375,148)"/>
<path d="M0 0 C2.08797856 0.67945319 4.16409917 1.40432472 6.1953125 2.23828125 C6.1953125 2.56828125 6.1953125 2.89828125 6.1953125 3.23828125 C5.3815918 3.12371582 4.56787109 3.00915039 3.72949219 2.89111328 C-1.41110535 2.47828284 -5.27139139 2.27448053 -9.73632812 5.08105469 C-12.51560277 7.63632506 -15.04568592 10.29257855 -17.5546875 13.11328125 C-18.885 14.51900391 -18.885 14.51900391 -20.2421875 15.953125 C-24.49316097 20.25322329 -24.49316097 20.25322329 -27.8046875 25.23828125 C-27.0621875 25.36203125 -26.3196875 25.48578125 -25.5546875 25.61328125 C-23.00327265 26.19314826 -21.0779302 26.97536864 -18.8046875 28.23828125 C-18.8046875 28.89828125 -18.8046875 29.55828125 -18.8046875 30.23828125 C-17.4846875 30.23828125 -16.1646875 30.23828125 -14.8046875 30.23828125 C-14.8046875 30.89828125 -14.8046875 31.55828125 -14.8046875 32.23828125 C-14.08925781 32.35042969 -13.37382812 32.46257812 -12.63671875 32.578125 C-9.61352752 33.2828413 -7.24146062 34.37115923 -4.4921875 35.80078125 C-3.60917969 36.25582031 -2.72617188 36.71085937 -1.81640625 37.1796875 C-0.82060547 37.70369141 -0.82060547 37.70369141 0.1953125 38.23828125 C0.1953125 38.89828125 0.1953125 39.55828125 0.1953125 40.23828125 C1.20658203 40.37556641 1.20658203 40.37556641 2.23828125 40.515625 C5.94628822 41.421809 9.14359743 43.05111224 12.5078125 44.80078125 C13.15298828 45.13013672 13.79816406 45.45949219 14.46289062 45.79882812 C16.04316478 46.6065238 17.61963355 47.42165738 19.1953125 48.23828125 C19.1953125 48.89828125 19.1953125 49.55828125 19.1953125 50.23828125 C19.91460937 50.35300781 20.63390625 50.46773437 21.375 50.5859375 C24.32492781 51.26826152 26.63386479 52.29148021 29.3203125 53.67578125 C30.16851562 54.10761719 31.01671875 54.53945312 31.890625 54.984375 C34.1953125 56.23828125 34.1953125 56.23828125 37.1953125 58.23828125 C37.1953125 58.89828125 37.1953125 59.55828125 37.1953125 60.23828125 C32.6003084 58.52328033 28.30472596 56.32701893 23.94921875 54.08984375 C23.14916916 53.680793 22.34911957 53.27174225 21.52482605 52.85029602 C18.93430667 51.52422161 16.34582976 50.19423169 13.7578125 48.86328125 C12.88137085 48.41308624 12.0049292 47.96289124 11.10192871 47.49905396 C0.6733334 42.13899129 -9.74466787 36.76146277 -20.0546875 31.17578125 C-20.92665771 30.70672363 -21.79862793 30.23766602 -22.69702148 29.75439453 C-23.48020752 29.32497559 -24.26339355 28.89555664 -25.0703125 28.453125 C-25.72805664 28.093396 -26.38580078 27.73366699 -27.06347656 27.36303711 C-28.90730471 26.17199445 -30.31313076 24.841676 -31.8046875 23.23828125 C-28.69928068 19.70996655 -25.53981995 16.24364652 -22.31982422 12.81958008 C-21.23520626 11.64987821 -20.16637515 10.46531689 -19.11474609 9.26586914 C-9.22433036 -1.97664222 -9.22433036 -1.97664222 0 0 Z " fill="#D5F1F8" transform="translate(141.8046875,154.76171875)"/>
<path d="M0 0 C0.66 0 1.32 0 2 0 C5 5.625 5 5.625 5 9 C5.66 9 6.32 9 7 9 C7.4846875 9.98097656 7.969375 10.96195312 8.46875 11.97265625 C11.8878132 18.86592883 15.34899081 25.72629772 19 32.5 C22.84268099 39.63586804 26.47701378 46.86654845 30.07275391 54.12939453 C31.47838207 56.96507726 32.89569526 59.79488881 34.3125 62.625 C35.20833333 64.41666667 36.10416667 66.20833333 37 68 C37.55042969 69.05960937 38.10085938 70.11921875 38.66796875 71.2109375 C40 74 40 74 40 76 C40.66 76 41.32 76 42 76 C42.40863281 76.98355469 42.81726563 77.96710938 43.23828125 78.98046875 C45.35891191 83.93110034 47.83847707 88.69241868 50.30273438 93.47851562 C53 98.78797542 53 98.78797542 53 101 C58.34593125 96.58379592 63.42229988 91.84770368 68.4375 87.0625 C69.06479004 86.48999512 69.69208008 85.91749023 70.33837891 85.32763672 C74.76920286 81.02788068 75.84392859 78.1817851 76 72 C77.4213882 74.2574989 78.02063391 75.60737216 77.87915039 78.29956055 C76.7111978 81.88709834 74.52938506 83.9714566 71.87109375 86.51953125 C71.36199966 87.02296555 70.85290558 87.52639984 70.3283844 88.04508972 C68.70726789 89.64389465 67.07277866 91.22819606 65.4375 92.8125 C64.33307117 93.89685713 63.22954463 94.98213408 62.12695312 96.06835938 C59.42830552 98.72300912 56.71758089 101.36474126 54 104 C51.25290112 100.61558685 49.30010588 96.92854924 47.33984375 93.05859375 C46.99400742 92.38355301 46.64817108 91.70851227 46.29185486 91.01301575 C45.55336466 89.57066159 44.81653909 88.12745412 44.08123779 86.68347168 C42.15645908 82.90376053 40.21976934 79.13015271 38.28515625 75.35546875 C37.90669556 74.61612091 37.52823486 73.87677307 37.13830566 73.11502075 C34.41997328 67.80736994 31.66786648 62.5188594 28.875 57.25 C24.3426252 48.68983119 19.89760608 40.08501526 15.45840454 31.47628784 C11.18799669 23.19520182 6.89255121 14.92927447 2.43725586 6.74560547 C0 2.21526128 0 2.21526128 0 0 Z " fill="#D5EEFA" transform="translate(265,284)"/>
<path d="M0 0 C0.33 0 0.66 0 1 0 C1.16604736 0.71542969 1.33209473 1.43085938 1.50317383 2.16796875 C2.26743394 5.44662607 3.03989979 8.7232984 3.8125 12 C4.07353516 13.12535156 4.33457031 14.25070312 4.60351562 15.41015625 C5.87884355 20.79487417 7.26626371 25.92230501 9.32275391 31.05615234 C10.37870204 34.0869595 10.89380996 37.19438347 11.47705078 40.34472656 C12.40892583 45.07631994 13.69507396 49.71716616 14.9375 54.375 C15.47191106 56.39568613 16.00577058 58.41651822 16.5390625 60.4375 C16.79204102 61.39527344 17.04501953 62.35304688 17.30566406 63.33984375 C18.41120023 67.57540002 19.44450711 71.8271996 20.45703125 76.0859375 C20.82984954 77.99228031 20.82984954 77.99228031 22 79 C22.04080783 80.99958364 22.04254356 83.00045254 22 85 C21.34 85 20.68 85 20 85 C15.14904805 68.05214994 10.64673372 51.01828811 6.32189941 33.92919922 C5.77561235 31.77455802 5.2260703 29.62073938 4.67321777 27.46777344 C3.88710686 24.40143201 3.11380109 21.33212736 2.34375 18.26171875 C2.10662292 17.34496872 1.86949585 16.42821869 1.62518311 15.48368835 C0.30982945 10.16739022 -0.23887293 5.47695816 0 0 Z " fill="#387FB1" transform="translate(315,247)"/>
<path d="M0 0 C0.99 0.495 0.99 0.495 2 1 C-6.76501478 9.88075902 -15.54340875 18.74804884 -24.33923626 27.59829712 C-28.42287953 31.7080569 -32.50173273 35.82234745 -36.57006836 39.94726562 C-40.49488063 43.92632164 -44.43170789 47.89311294 -48.37723732 51.85162354 C-49.88193785 53.36557746 -51.38222349 54.8839323 -52.87802696 56.40667725 C-54.97063437 58.53547056 -57.0782592 60.64820852 -59.19018555 62.7578125 C-59.80805939 63.39366272 -60.42593323 64.02951294 -61.06253052 64.68463135 C-65.32112485 68.89267494 -65.32112485 68.89267494 -68.8631134 69.45263672 C-71 69 -71 69 -72 68 C-74.32817964 67.63239269 -76.6618385 67.29758419 -79 67 C-79 66.34 -79 65.68 -79 65 C-78.2437886 65.23855209 -77.48757721 65.47710419 -76.70845032 65.72288513 C-72.25918908 66.65134958 -68.25434976 67.28133597 -64.13445663 64.9396553 C-59.02633111 61.05794291 -54.69733478 56.30050907 -50.29296875 51.66015625 C-48.83490048 50.1759508 -47.37369121 48.69482508 -45.90950012 47.21665955 C-42.07854098 43.33244387 -38.29149264 39.40805358 -34.51226807 35.47357178 C-30.64270082 31.46035235 -26.7328017 27.4868563 -22.82617188 23.50976562 C-15.17759585 15.71139454 -7.57484977 7.86995703 0 0 Z " fill="#D8F1FD" transform="translate(350,126)"/>
<path d="M0 0 C3.87600002 3.31984108 5.68144225 7.16841628 7.6875 11.75 C10.49689492 17.94953286 13.51266693 23.95619924 16.875 29.875 C17.25615967 30.5462793 17.63731934 31.21755859 18.0300293 31.90917969 C19.6117046 34.66689966 21.23592269 37.35388404 23 40 C23.495 39.319375 23.99 38.63875 24.5 37.9375 C27.11911015 34.86004557 29.92220377 32.34899564 33 29.74609375 C33.66 29.16988281 34.32 28.59367187 35 28 C35.73734375 27.45988281 36.4746875 26.91976563 37.234375 26.36328125 C39.96662342 22.70617883 39.42999363 19.18061238 39.25 14.75 C39.23195312 13.90953125 39.21390625 13.0690625 39.1953125 12.203125 C39.14830798 10.13492605 39.07656724 8.06731559 39 6 C39.33 6 39.66 6 40 6 C40.33774332 8.22850277 40.6700187 10.45783467 41 12.6875 C41.185625 13.92886719 41.37125 15.17023438 41.5625 16.44921875 C42.52957578 24.29807488 42.52957578 24.29807488 40.25585938 27.31176758 C39.06186523 28.4664856 39.06186523 28.4664856 37.84375 29.64453125 C36.98652344 30.48564453 36.12929687 31.32675781 35.24609375 32.19335938 C34.33988281 33.05767578 33.43367188 33.92199219 32.5 34.8125 C31.59378906 35.69615234 30.68757813 36.57980469 29.75390625 37.49023438 C27.51339451 39.67178528 25.2620652 41.8408423 23 44 C19.65167778 41.22318379 18.0077162 37.47405076 16.09375 33.6640625 C15.7277771 32.94769623 15.3618042 32.23132996 14.98474121 31.49325562 C13.81768256 29.20657846 12.65850557 26.91602056 11.5 24.625 C10.34011529 22.34185345 9.17857865 20.05956586 8.01525879 17.77816772 C7.2928139 16.36025533 6.5725677 14.94121984 5.8548584 13.52090454 C4.40768853 10.6715077 2.95303262 7.92493372 1.25585938 5.21240234 C0 3 0 3 0 0 Z " fill="#D0EFF9" transform="translate(169,330)"/>
<path d="M0 0 C2.68492529 0.32866801 5.3638992 0.69332935 8.04296875 1.06640625 C13.30644554 1.76927624 18.57985803 2.19703524 23.875 2.578125 C23.215 3.568125 22.555 4.558125 21.875 5.578125 C20.84898682 5.44966187 20.84898682 5.44966187 19.80224609 5.31860352 C18.36486084 5.13962524 18.36486084 5.13962524 16.8984375 4.95703125 C15.84213135 4.82514404 14.7858252 4.69325684 13.69750977 4.55737305 C11.38712739 4.27808527 9.07501727 4.01275754 6.76147461 3.76098633 C-3.13136407 2.67992763 -3.13136407 2.67992763 -7.26953125 1.5234375 C-11.00341727 0.66415649 -13.37986061 0.80025917 -17.125 1.578125 C-19.68769072 3.24503989 -19.68769072 3.24503989 -21.89453125 5.53125 C-22.71961182 6.33022705 -23.54469238 7.1292041 -24.39477539 7.95239258 C-27.52210926 11.18439162 -30.53410111 14.50137776 -33.46777344 17.90991211 C-34.0146582 18.46042236 -34.56154297 19.01093262 -35.125 19.578125 C-35.785 19.578125 -36.445 19.578125 -37.125 19.578125 C-35.95244291 16.24084714 -34.93631596 13.80375013 -32.125 11.578125 C-31.465 11.578125 -30.805 11.578125 -30.125 11.578125 C-30.125 10.918125 -30.125 10.258125 -30.125 9.578125 C-28.48046875 7.95703125 -28.48046875 7.95703125 -26.3125 6.140625 C-23.35740641 3.69308941 -23.35740641 3.69308941 -20.78125 0.875 C-16.14619118 -2.75433851 -5.73012335 -0.63849946 0 0 Z " fill="#58AAC5" transform="translate(161.125,287.421875)"/>
<path d="M0 0 C0.99 0.33 1.98 0.66 3 1 C2.12010155 1.85325111 2.12010155 1.85325111 1.22242737 2.72373962 C-4.31597494 8.10150457 -9.83458528 13.49848435 -15.33230495 18.91780758 C-18.1591195 21.70296144 -20.99284405 24.48022457 -23.84399414 27.24047852 C-26.59794293 29.90717577 -29.33158363 32.59324096 -32.05256844 35.29355049 C-33.09136618 36.31762447 -34.13715438 37.33465947 -35.19006157 38.34422112 C-42.07945466 44.65714835 -42.07945466 44.65714835 -45.14868164 53.19750977 C-45.0996167 54.45233154 -45.05055176 55.70715332 -45 57 C-45.33 57 -45.66 57 -46 57 C-46.08114106 55.22992286 -46.13925505 53.45877902 -46.1875 51.6875 C-46.23970703 50.20830078 -46.23970703 50.20830078 -46.29296875 48.69921875 C-46 46 -46 46 -44.61328125 44.14453125 C-43 43 -43 43 -41 43 C-40.34 41.68 -39.68 40.36 -39 39 C-38.34 39 -37.68 39 -37 39 C-36.7525 38.38125 -36.505 37.7625 -36.25 37.125 C-34.76259631 34.59641373 -33.56321991 34.28160996 -31 33 C-30.74992188 32.43152344 -30.49984375 31.86304688 -30.2421875 31.27734375 C-28.48675857 28.05905737 -25.85246248 25.94003623 -23.125 23.5625 C-19.3575774 20.25798456 -16.04570508 17.01479306 -13 13 C-11.375 11.1875 -11.375 11.1875 -10 10 C-9.34 10 -8.68 10 -8 10 C-7.34 8.68 -6.68 7.36 -6 6 C-5.34 6 -4.68 6 -4 6 C-3.34 4.68 -2.68 3.36 -2 2 C-1.34 2 -0.68 2 0 2 C0 1.34 0 0.68 0 0 Z " fill="#DCF4FD" transform="translate(252,267)"/>
<path d="M0 0 C0.33 0.99 0.66 1.98 1 3 C-0.375 4.5 -0.375 4.5 -2 6 C-2.66 6 -3.32 6 -4 6 C-2.88214774 15.82319531 -2.88214774 15.82319531 -0.9375 25.5 C-0.61972384 26.99889111 -0.30794755 28.49905878 0 30 C0.41572266 31.67642578 0.41572266 31.67642578 0.83984375 33.38671875 C2.46396195 42.7374111 2.46396195 42.7374111 -0.27099609 46.96435547 C-3.60463507 50.88703946 -7.41534221 54.21864315 -11.35205078 57.51977539 C-13.51504048 59.46262081 -15.19225817 61.73105753 -17 64 C-19.75 64.8125 -19.75 64.8125 -22 65 C-19.16575879 62.08856156 -16.26935175 59.34546949 -13.1953125 56.6875 C-5.57709472 50.28852275 -5.57709472 50.28852275 -1.17578125 41.7265625 C-1.46110634 38.34524724 -2.16049656 35.28743603 -3 32 C-3.43448399 29.11280595 -3.74742722 26.21485393 -4.0625 23.3125 C-4.14757812 22.58659668 -4.23265625 21.86069336 -4.3203125 21.11279297 C-6.02058328 6.55754522 -6.02058328 6.55754522 -3.87890625 3.2890625 C-2.5 1.875 -2.5 1.875 0 0 Z " fill="#4E9EC0" transform="translate(212,310)"/>
<path d="M0 0 C0.99 0.33 1.98 0.66 3 1 C2.33355469 1.6297876 1.66710937 2.2595752 0.98046875 2.90844727 C-1.49383362 5.26314394 -3.95133976 7.63305405 -6.39941406 10.01489258 C-7.4602284 11.04059454 -8.5272525 12.05991561 -9.60058594 13.07250977 C-11.14651632 14.53311282 -12.66832954 16.01554968 -14.1875 17.50390625 C-15.10917969 18.38892822 -16.03085937 19.2739502 -16.98046875 20.18579102 C-19.53987454 23.75231308 -19.46307547 25.69196717 -19 30 C-18.57020752 32.48419281 -18.57020752 32.48419281 -17.87109375 34.76953125 C-17.64099609 35.59517578 -17.41089844 36.42082031 -17.17382812 37.27148438 C-16.93083984 38.11001953 -16.68785156 38.94855469 -16.4375 39.8125 C-15.95057335 41.50466546 -15.46977722 43.198611 -14.99609375 44.89453125 C-14.78138428 45.63550049 -14.5666748 46.37646973 -14.34545898 47.13989258 C-14 49 -14 49 -15 51 C-17.67360724 46.11537446 -19.23833433 41.27445756 -20.6875 35.9375 C-20.91244141 35.14794922 -21.13738281 34.35839844 -21.36914062 33.54492188 C-23.56651357 25.57694034 -23.56651357 25.57694034 -23 22 C-21.77734375 20.5078125 -21.77734375 20.5078125 -19.9375 19.125 C-15.31749567 15.39056612 -11.17645482 11.27683761 -7 7.0625 C-6.31671631 6.37494629 -5.63343262 5.68739258 -4.92944336 4.97900391 C-3.28415565 3.32143327 -1.64099044 1.66182333 0 0 Z " fill="#347EB1" transform="translate(329,195)"/>
<path d="M0 0 C2.03117264 2.59971079 3.70944763 5.15935812 5.20141602 8.09985352 C5.60936905 8.89911758 6.01732208 9.69838165 6.43763733 10.52186584 C6.87200607 11.38218918 7.30637482 12.24251251 7.75390625 13.12890625 C8.21425766 14.03261459 8.67460907 14.93632294 9.14891052 15.86741638 C10.62369808 18.76396778 12.09336088 21.66308021 13.5625 24.5625 C15.47859537 28.33558988 17.39718977 32.10740321 19.31640625 35.87890625 C19.78777008 36.80716217 20.25913391 37.73541809 20.74478149 38.69180298 C23.0855781 43.29055433 25.45145742 47.87318697 27.87451172 52.42919922 C28.33172104 53.28916 28.78893036 54.14912079 29.25999451 55.03514099 C30.11915901 56.64525744 30.98237549 58.25322125 31.85047913 59.85853577 C33.97361746 63.83320794 35.72523612 67.65239781 37 72 C34.76089499 69.92559973 33.28542671 67.97292498 31.87890625 65.26953125 C31.50056641 64.54830078 31.12222656 63.82707031 30.73242188 63.08398438 C30.15331055 61.95959961 30.15331055 61.95959961 29.5625 60.8125 C29.18029297 60.08224609 28.79808594 59.35199219 28.40429688 58.59960938 C27.25929559 56.40486157 26.12835223 54.20334638 25 52 C24.61183105 51.25282715 24.22366211 50.5056543 23.82373047 49.73583984 C21 44.23136834 21 44.23136834 21 42 C20.34 42 19.68 42 19 42 C19 40.68 19 39.36 19 38 C18.34 38 17.68 38 17 38 C16.3291288 36.3767313 15.66342971 34.75132422 15 33.125 C14.62875 32.22007812 14.2575 31.31515625 13.875 30.3828125 C13 28 13 28 13 26 C12.34 26 11.68 26 11 26 C10.73783691 25.44014404 10.47567383 24.88028809 10.20556641 24.3034668 C9.01453452 21.76363475 7.81981069 19.22555644 6.625 16.6875 C6.2125 15.80642578 5.8 14.92535156 5.375 14.01757812 C4.97539062 13.17001953 4.57578125 12.32246094 4.1640625 11.44921875 C3.61419678 10.27879028 3.61419678 10.27879028 3.05322266 9.0847168 C1.94495638 6.78753707 1.94495638 6.78753707 0 4 C0 2.68 0 1.36 0 0 Z " fill="#468AB4" transform="translate(274,303)"/>
<path d="M0 0 C1.92583384 2.88875076 2.51359149 4.5488583 3.25390625 7.859375 C3.46853516 8.81070312 3.68316406 9.76203125 3.90429688 10.7421875 C4.12150391 11.73476563 4.33871094 12.72734375 4.5625 13.75 C4.78357422 14.72710937 5.00464844 15.70421875 5.23242188 16.7109375 C6.36608449 21.79358195 7.35758743 26.831827 8 32 C6.515 32.495 6.515 32.495 5 33 C4.29211971 34.31191757 3.62886561 35.64842674 3 37 C1.65893555 38.58398438 1.65893555 38.58398438 0.13671875 40.09375 C-0.42080078 40.64933594 -0.97832031 41.20492187 -1.55273438 41.77734375 C-2.13345703 42.34582031 -2.71417969 42.91429687 -3.3125 43.5 C-3.88162109 44.06847656 -4.45074219 44.63695312 -5.03710938 45.22265625 C-8.2120822 48.36482224 -11.44664615 51.27998429 -15 54 C-15.66 53.67 -16.32 53.34 -17 53 C-16.32831787 52.37544922 -15.65663574 51.75089844 -14.96459961 51.10742188 C-12.47313583 48.76974147 -10.00356822 46.41277963 -7.5456543 44.04003906 C-6.47973946 43.01927228 -5.4058716 42.00674151 -4.32397461 41.00292969 C1.88076103 35.69484516 1.88076103 35.69484516 5.53295898 28.73999023 C5.35454084 26.38217763 5.35454084 26.38217763 4 23 C3.67902344 21.83597656 3.35804688 20.67195313 3.02734375 19.47265625 C2.66769531 18.34730469 2.30804688 17.22195313 1.9375 16.0625 C0.25712686 10.42688032 -0.40336736 5.84882669 0 0 Z " fill="#4B89B6" transform="translate(337,333)"/>
<path d="M0 0 C4.10893973 -0.26227275 7.1898764 -0.07183599 11.0625 1.35546875 C17.22431706 3.49226351 23.54542539 4.75373503 29.91601562 6.10546875 C34.15022972 7.0306902 38.23100191 7.99467561 42.27734375 9.5625 C45.69848188 10.88356908 48.91779043 11.75518415 52.5 12.5 C57.56515037 13.61445101 62.20872268 15.0271211 67 17 C63.34516117 18.21827961 61.8119504 17.65908193 58.109375 16.70703125 C56.9325415 16.40853271 55.75570801 16.11003418 54.54321289 15.80249023 C53.29145264 15.47579346 52.03969238 15.14909668 50.75 14.8125 C49.47181396 14.48515869 48.19362793 14.15781738 46.87670898 13.82055664 C43.24888569 12.88882313 39.62408421 11.94615532 36 11 C34.51696683 10.61703354 33.03390272 10.23418686 31.55078125 9.8515625 C20.98419283 7.08271402 10.49501332 4.02673697 0 1 C0 0.67 0 0.34 0 0 Z " fill="#57A5C2" transform="translate(163,161)"/>
<path d="M0 0 C2 1 2 1 3 3 C2.2059375 3.48210937 1.411875 3.96421875 0.59375 4.4609375 C-0.4271875 5.09257812 -1.448125 5.72421875 -2.5 6.375 C-3.5209375 7.00148438 -4.541875 7.62796875 -5.59375 8.2734375 C-6.3878125 8.84320313 -7.181875 9.41296875 -8 10 C-8 10.66 -8 11.32 -8 12 C-8.85207031 12.12246094 -9.70414062 12.24492187 -10.58203125 12.37109375 C-14.07503645 13.01380671 -17.3048479 13.98637693 -20.6875 15.0625 C-26.96018517 16.90897587 -32.49761525 17.47772623 -39 17 C-35.77988731 15.22391866 -32.62494843 14.26448902 -29.0625 13.375 C-28.04285156 13.11460937 -27.02320313 12.85421875 -25.97265625 12.5859375 C-23.21832521 12.04303388 -20.79607237 11.8867153 -18 12 C-18 11.34 -18 10.68 -18 10 C-16.865625 9.62875 -15.73125 9.2575 -14.5625 8.875 C-9.35495304 6.94076827 -3.96094463 3.96094463 0 0 Z " fill="#0E529E" transform="translate(473,483)"/>
<path d="M0 0 C0.99 0.33 1.98 0.66 3 1 C0.20701364 4.04130275 -2.61867269 7.04783821 -5.4777832 10.02709961 C-6.44421299 11.04363698 -7.40145773 12.06899321 -8.34887695 13.10327148 C-16.10663093 21.55331846 -16.10663093 21.55331846 -20.27563477 22.53686523 C-22.68532329 22.32161243 -24.70207083 21.75667846 -27 21 C-28.96936166 20.52706361 -30.93946205 20.05719645 -32.91015625 19.58984375 C-34.96267314 19.04556611 -37.01344976 18.49468653 -39.0625 17.9375 C-40.11888672 17.65583984 -41.17527344 17.37417969 -42.26367188 17.08398438 C-44.84405915 16.39510271 -47.42270414 15.70034171 -50 15 C-50 14.67 -50 14.34 -50 14 C-44.41541206 13.69538611 -40.39426525 14.35216936 -35.16015625 16.2734375 C-32.15909922 17.28283462 -29.13306991 17.59386131 -26 18 C-23.63829915 18.59390512 -21.32980808 19.28679344 -19 20 C-19 19.34 -19 18.68 -19 18 C-18.34 18 -17.68 18 -17 18 C-17 17.34 -17 16.68 -17 16 C-15.56640625 14.58984375 -15.56640625 14.58984375 -13.5625 12.9375 C-8.77658299 8.87931634 -4.3885623 4.47999069 0 0 Z " fill="#448AB5" transform="translate(302,171)"/>
<path d="M0 0 C0.495 1.485 0.495 1.485 1 3 C0.01 3.33 -0.98 3.66 -2 4 C-3.05843636 5.87691013 -3.05843636 5.87691013 -4 8 C-8.13269389 13.51897728 -13.22675687 18.3520649 -18.0625 23.25 C-18.65192383 23.85247559 -19.24134766 24.45495117 -19.84863281 25.07568359 C-23.33913736 28.57300934 -26.78879336 31.41046045 -31 34 C-31.66 33.67 -32.32 33.34 -33 33 C-22.11 22.11 -11.22 11.22 0 0 Z " fill="#4A9ABF" transform="translate(246,276)"/>
<path d="M0 0 C2.475 0.495 2.475 0.495 5 1 C7 6.75 7 6.75 7 9 C7.99 9.66 8.98 10.32 10 11 C10.4765625 12.98828125 10.4765625 12.98828125 10.625 15.3125 C10.79885259 17.75057557 11.00776334 20.03630674 11.51953125 22.4296875 C12.0522894 25.27972704 12.09740169 27.91565959 12.0625 30.8125 C12.05347656 31.78832031 12.04445313 32.76414063 12.03515625 33.76953125 C12.02355469 34.50558594 12.01195312 35.24164063 12 36 C10.23823164 32.7981775 9.26648671 29.66393208 8.375 26.125 C8.11460937 25.11695312 7.85421875 24.10890625 7.5859375 23.0703125 C6.99417754 19.9694903 6.89661867 17.14843131 7 14 C6.34 14 5.68 14 5 14 C4.35089846 12.41800369 3.70585306 10.83434276 3.0625 9.25 C2.70285156 8.36828125 2.34320313 7.4865625 1.97265625 6.578125 C1.14643424 4.38813896 0.50630057 2.28101729 0 0 Z M8 11 C9 13 9 13 9 13 Z " fill="#094796" transform="translate(488,30)"/>
<path d="M0 0 C3.15876741 0.64173604 5.52199596 1.78455728 8.3125 3.375 C14.02948515 6.33619291 19.68705067 7.34183088 25.97265625 8.421875 C29 9 29 9 30 10 C31.34747084 10.23075082 32.70377565 10.41153063 34.0625 10.5625 C35.361875 10.706875 36.66125 10.85125 38 11 C38 11.33 38 11.66 38 12 C35.4374282 12.02710123 32.87514635 12.04688771 30.3125 12.0625 C29.2306543 12.07506836 29.2306543 12.07506836 28.12695312 12.08789062 C21.69672267 12.11725241 16.43043396 11.62028931 11 8 C9.00827818 7.30899447 7.00838196 6.64097297 5 6 C2.83852297 4.91926148 1.58960328 3.80636736 0 2 C0 1.34 0 0.68 0 0 Z " fill="#5DCAD6" transform="translate(30,488)"/>
<path d="M0 0 C8.02833919 0.58088415 15.40373728 2.60229291 23.125 4.8125 C24.42059998 5.17785401 25.7164184 5.54243423 27.01245117 5.90625 C29.53832726 6.61598707 32.06365705 7.32767181 34.58837891 8.04150391 C38.82042176 9.23049777 43.0622781 10.37798016 47.3125 11.5 C48.44300781 11.7990625 49.57351562 12.098125 50.73828125 12.40625 C51.48464844 12.6021875 52.23101562 12.798125 53 13 C53 13.33 53 13.66 53 14 C48.71012764 14.17509683 45.20286952 13.85148572 41.10375977 12.61962891 C36.76723341 11.34237419 32.37569388 10.25909224 28 9.125 C25.95571547 8.5911983 23.91144466 8.05734402 21.8671875 7.5234375 C18.31342 6.5973181 14.75712879 5.68369354 11.1953125 4.7890625 C10.49792969 4.61101074 9.80054688 4.43295898 9.08203125 4.24951172 C7.24611593 3.78091357 5.40827562 3.31987565 3.5703125 2.859375 C1 2 1 2 0 0 Z " fill="#D4F1F9" transform="translate(150,159)"/>
<path d="M0 0 C0 3 0 3 -1 5 C1.97 5.99 4.94 6.98 8 8 C8 8.66 8 9.32 8 10 C8.71542969 10.11214844 9.43085938 10.22429687 10.16796875 10.33984375 C13.19115998 11.04456005 15.56322688 12.13287798 18.3125 13.5625 C19.19550781 14.01753906 20.07851562 14.47257812 20.98828125 14.94140625 C21.65214844 15.29074219 22.31601563 15.64007813 23 16 C23 16.66 23 17.32 23 18 C24.32 18 25.64 18 27 18 C27 18.66 27 19.32 27 20 C27.70125 20.103125 28.4025 20.20625 29.125 20.3125 C32.39137647 21.09359003 35.0471852 22.42058743 38 24 C38 24.66 38 25.32 38 26 C33.85797424 25.07451651 30.31586245 23.26126014 26.56640625 21.32421875 C25.85145493 20.95778763 25.1365036 20.59135651 24.39988708 20.21382141 C22.89009701 19.43836242 21.38141709 18.66073868 19.8737793 17.88110352 C17.57771453 16.69535717 15.27646929 15.5201516 12.97460938 14.34570312 C11.50488118 13.58917691 10.03546954 12.83203532 8.56640625 12.07421875 C7.88292618 11.7261467 7.19944611 11.37807465 6.49525452 11.01945496 C2.64232625 9.01487979 -0.68745949 6.85214405 -4 4 C-2.68 2.68 -1.36 1.36 0 0 Z " fill="#D4F3FA" transform="translate(129,303)"/>
<path d="M0 0 C6.37198099 0.57290538 12.27677862 1.6755123 18.4375 3.375 C19.26354736 3.59760498 20.08959473 3.82020996 20.94067383 4.04956055 C26.65807963 5.60056791 32.34370269 7.23820248 38 9 C38 9.33 38 9.66 38 10 C35.66705225 10.04241723 33.33297433 10.04092937 31 10 C30.67 9.67 30.34 9.34 30 9 C27.98767242 8.52490913 25.96429082 8.09651416 23.9375 7.6875 C15.89883196 6.01519213 7.9535026 4.03485716 0 2 C0 1.34 0 0.68 0 0 Z " fill="#D7F0F9" transform="translate(233,181)"/>
<path d="M0 0 C4.29 0 8.58 0 13 0 C13 0.66 13 1.32 13 2 C13.556875 2.061875 14.11375 2.12375 14.6875 2.1875 C19.04207909 3.71748725 21.41501872 7.07209866 23.8125 10.875 C25.58144933 15.53012982 25.60283752 19.22916478 24 23.9375 C23.67 24.618125 23.34 25.29875 23 26 C22.67 26 22.34 26 22 26 C22.04640625 25.13117188 22.0928125 24.26234375 22.140625 23.3671875 C22.41979481 16.19760651 22.41979481 16.19760651 20.375 9.4375 C14.22659063 3.12729039 8.5063326 2.04608621 0 1 C0 0.67 0 0.34 0 0 Z " fill="#2D70A9" transform="translate(355,121)"/>
<path d="M0 0 C-1.42062515 3.2268998 -3.14245441 5.39942512 -5.625 7.890625 C-6.33140625 8.59960938 -7.0378125 9.30859375 -7.765625 10.0390625 C-8.50296875 10.76867187 -9.2403125 11.49828125 -10 12.25 C-10.73734375 12.99507813 -11.4746875 13.74015625 -12.234375 14.5078125 C-13.29398438 15.56355469 -13.29398438 15.56355469 -14.375 16.640625 C-15.02210938 17.28547852 -15.66921875 17.93033203 -16.3359375 18.59472656 C-18 20 -18 20 -20 20 C-18.82744291 16.66272214 -17.81131596 14.22562513 -15 12 C-14.34 12 -13.68 12 -13 12 C-13 11.34 -13 10.68 -13 10 C-11.35546875 8.37890625 -11.35546875 8.37890625 -9.1875 6.5625 C-6.17536735 4.02660668 -6.17536735 4.02660668 -3.36328125 1.27734375 C-2 0 -2 0 0 0 Z " fill="#60B7CD" transform="translate(144,287)"/>
<path d="M0 0 C1.92583384 2.88875076 2.51359149 4.5488583 3.25390625 7.859375 C3.46853516 8.81070312 3.68316406 9.76203125 3.90429688 10.7421875 C4.12150391 11.73476563 4.33871094 12.72734375 4.5625 13.75 C4.78357422 14.72710937 5.00464844 15.70421875 5.23242188 16.7109375 C6.36608449 21.79358195 7.35758743 26.831827 8 32 C4.72349652 28.72349652 4.1253474 24.31969841 2.875 19.9375 C2.59785156 19.02033203 2.32070313 18.10316406 2.03515625 17.15820312 C0.33116108 11.23619035 -0.28997673 6.15885356 0 0 Z " fill="#357BB0" transform="translate(337,333)"/>
<path d="M0 0 C8.71414306 -0.62867565 15.80919903 1.08308519 24 4 C23.67 4.99 23.34 5.98 23 7 C22.34773438 6.79503906 21.69546875 6.59007812 21.0234375 6.37890625 C16.3494354 4.93810029 11.83878672 3.75270016 7 3 C4.64770077 2.38677332 2.32907378 1.69872213 0 1 C0 0.67 0 0.34 0 0 Z " fill="#14559D" transform="translate(435,0)"/>
<path d="M0 0 C2.89661046 2.53216143 4.39113647 5.35696915 6.13671875 8.76171875 C7.00200195 10.43911133 7.00200195 10.43911133 7.88476562 12.15039062 C8.47966797 13.31763672 9.07457031 14.48488281 9.6875 15.6875 C10.29960608 16.87852472 10.91223075 18.06928307 11.52539062 19.25976562 C13.02205222 22.17059566 14.51335418 25.08404543 16 28 C15.34 28.33 14.68 28.66 14 29 C10.57068046 25.2440786 9.43570917 20.76533255 8 16 C7.34 16 6.68 16 6 16 C5.73445312 15.31292969 5.46890625 14.62585938 5.1953125 13.91796875 C4.84210938 13.01691406 4.48890625 12.11585938 4.125 11.1875 C3.77695313 10.29417969 3.42890625 9.40085937 3.0703125 8.48046875 C2.01167845 5.82288409 2.01167845 5.82288409 0 3 C0 2.01 0 1.02 0 0 Z " fill="#57A7C4" transform="translate(175,345)"/>
<path d="M0 0 C0.99 0.33 1.98 0.66 3 1 C-2.28 6.28 -7.56 11.56 -13 17 C-13.33 16.01 -13.66 15.02 -14 14 C-9.38 9.38 -4.76 4.76 0 0 Z " fill="#CBE4F6" transform="translate(370,151)"/>
<path d="M0 0 C5.57273766 -0.30396751 9.59032034 0.34357276 14.8125 2.265625 C17.86538041 3.29052056 20.80422294 3.66002372 24 4 C24.33 4.99 24.66 5.98 25 7 C23.94941406 6.73445312 22.89882813 6.46890625 21.81640625 6.1953125 C14.56308403 4.36816609 7.31488991 2.56747641 0 1 C0 0.67 0 0.34 0 0 Z " fill="#4992B9" transform="translate(252,185)"/>
<path d="M0 0 C2.58587003 1.26587358 5.16865501 2.53745849 7.75 3.8125 C8.47960937 4.16892578 9.20921875 4.52535156 9.9609375 4.89257812 C13.55910218 6.67530517 16.89632709 8.41088339 20 11 C15.10099849 10.4498845 11.51048663 8.96682361 7.1875 6.625 C6.04667969 6.01914062 4.90585938 5.41328125 3.73046875 4.7890625 C1 3 1 3 0 0 Z " fill="#63B5CB" transform="translate(126,308)"/>
<path d="M0 0 C0.33 0 0.66 0 1 0 C1.20496094 0.85464844 1.40992188 1.70929688 1.62109375 2.58984375 C1.89050781 3.69457031 2.15992188 4.79929687 2.4375 5.9375 C2.70433594 7.03964844 2.97117187 8.14179688 3.24609375 9.27734375 C3.72995725 11.89421254 3.72995725 11.89421254 5 13 C5.04080783 14.99958364 5.04254356 17.00045254 5 19 C4.34 19 3.68 19 3 19 C0.99134292 12.49577707 -0.38614349 6.8218683 0 0 Z " fill="#3079AF" transform="translate(332,313)"/>
<path d="M0 0 C2.93878727 0.28159633 5.87560413 0.57481385 8.8125 0.875 C9.64587891 0.95363281 10.47925781 1.03226562 11.33789062 1.11328125 C12.14033203 1.19707031 12.94277344 1.28085937 13.76953125 1.3671875 C14.87711792 1.47716064 14.87711792 1.47716064 16.00708008 1.58935547 C18 2 18 2 21 4 C14.73 3.67 8.46 3.34 2 3 C2 2.34 2 1.68 2 1 C1.34 0.67 0.68 0.34 0 0 Z " fill="#CCEDF6" transform="translate(162,290)"/>
<path d="M0 0 C0.99 0.33 1.98 0.66 3 1 C-0.63 4.63 -4.26 8.26 -8 12 C-8.66 11.34 -9.32 10.68 -10 10 C-6.7 6.7 -3.4 3.4 0 0 Z " fill="#C6E2F3" transform="translate(326,195)"/>
<path d="M0 0 C0.99 0.33 1.98 0.66 3 1 C1.02 1.99 1.02 1.99 -1 3 C-0.7834375 3.74765625 -0.566875 4.4953125 -0.34375 5.265625 C-0.0653125 6.25046875 0.213125 7.2353125 0.5 8.25 C0.7784375 9.22453125 1.056875 10.1990625 1.34375 11.203125 C2 14 2 14 2 18 C1.34 18 0.68 18 0 18 C-1.58510948 12.45211682 -2.39834228 7.77596312 -2 2 C-1.34 1.34 -0.68 0.68 0 0 Z " fill="#CCE7F5" transform="translate(307,214)"/>
<path d="M0 0 C2.59037598 3.20490963 4.37943156 6.55350453 6.1875 10.25 C6.71730469 11.32765625 7.24710937 12.4053125 7.79296875 13.515625 C8.19128906 14.33546875 8.58960938 15.1553125 9 16 C8.34 16.33 7.68 16.66 7 17 C5.82286337 14.9219935 4.65828026 12.83848217 3.5 10.75 C3.16613281 10.16347656 2.83226562 9.57695312 2.48828125 8.97265625 C0.63923194 5.61417893 0 3.93354216 0 0 Z " fill="#4991B8" transform="translate(265,286)"/>
<path d="M0 0 C0 3.73928499 -0.91959602 4.40902253 -3.375 7.125 C-4.31472656 8.18074219 -4.31472656 8.18074219 -5.2734375 9.2578125 C-7 11 -7 11 -9 12 C-8.45015228 8.12488273 -6.72444669 6.40423494 -3.9375 3.75 C-3.20402344 3.04359375 -2.47054688 2.3371875 -1.71484375 1.609375 C-1.14894531 1.07828125 -0.58304687 0.5471875 0 0 Z " fill="#4283B2" transform="translate(343,363)"/>
<path d="M0 0 C4.62 0.99 9.24 1.98 14 3 C14 3.33 14 3.66 14 4 C8.39 4 2.78 4 -3 4 C-2.01 2.68 -1.02 1.36 0 0 Z " fill="#C5ECF5" transform="translate(134,154)"/>
<path d="M0 0 C5.28137429 0.51525603 8.57221156 2.25477117 13 5 C13 5.66 13 6.32 13 7 C8.50202887 5.31326082 4.27113698 3.18326108 0 1 C0 0.67 0 0.34 0 0 Z " fill="#D3F0F9" transform="translate(185,218)"/>
<path d="M0 0 C5.28137429 0.51525603 8.57221156 2.25477117 13 5 C13 5.66 13 6.32 13 7 C8.50202887 5.31326082 4.27113698 3.18326108 0 1 C0 0.67 0 0.34 0 0 Z " fill="#D3F0FA" transform="translate(206,229)"/>
<path d="M0 0 C0.33 0 0.66 0 1 0 C1.68829114 8.60363924 1.68829114 8.60363924 -0.875 12.5625 C-1.57625 13.366875 -2.2775 14.17125 -3 15 C-3.66 15 -4.32 15 -5 15 C-4.71125 14.443125 -4.4225 13.88625 -4.125 13.3125 C-1.97068538 8.88418662 -0.68328981 4.89691031 0 0 Z " fill="#E0F2FD" transform="translate(376,136)"/>
<path d="M0 0 C3.63 0 7.26 0 11 0 C11 0.99 11 1.98 11 3 C11.66 3.33 12.32 3.66 13 4 C8.51474352 3.343621 4.33085971 2.29925791 0 1 C0 0.67 0 0.34 0 0 Z " fill="#0E59A7" transform="translate(435,0)"/>
<path d="M0 0 C0.99 0.33 1.98 0.66 3 1 C0.69 3.31 -1.62 5.62 -4 8 C-4.66 7.34 -5.32 6.68 -6 6 C-4.02 4.02 -2.04 2.04 0 0 Z " fill="#CAE3F5" transform="translate(350,171)"/>
<path d="M0 0 C0.99 0.33 1.98 0.66 3 1 C2.51917969 1.39832031 2.03835937 1.79664063 1.54296875 2.20703125 C-0.37391825 4.43450247 -0.47741643 5.78834669 -0.6875 8.6875 C-0.75324219 9.49574219 -0.81898438 10.30398438 -0.88671875 11.13671875 C-0.92410156 11.75160156 -0.96148437 12.36648438 -1 13 C-1.33 13 -1.66 13 -2 13 C-2.05391993 11.20866022 -2.09275571 9.41686101 -2.125 7.625 C-2.14820313 6.62726563 -2.17140625 5.62953125 -2.1953125 4.6015625 C-2 2 -2 2 0 0 Z " fill="#CAEBF7" transform="translate(208,311)"/>
<path d="M0 0 C0.99 0.33 1.98 0.66 3 1 C-0.465 3.97 -0.465 3.97 -4 7 C-4 4 -4 4 -2 1.8125 C-1.34 1.214375 -0.68 0.61625 0 0 Z " fill="#C4E1F1" transform="translate(314,207)"/>
<path d="M0 0 C5.94 1.485 5.94 1.485 12 3 C12 3.33 12 3.66 12 4 C7.45194365 4.17835515 4.1205746 3.99785435 0 2 C0 1.34 0 0.68 0 0 Z " fill="#C9E8F5" transform="translate(259,187)"/>
<path d="M0 0 C0.99 0.33 1.98 0.66 3 1 C-0.465 3.97 -0.465 3.97 -4 7 C-3.04065919 3.16263678 -2.76390737 2.40339772 0 0 Z " fill="#C4E1F2" transform="translate(333,188)"/>
<path d="M0 0 C5.94 1.485 5.94 1.485 12 3 C12 3.33 12 3.66 12 4 C7.01137151 4.29344873 4.03770942 4.05887078 0 1 C0 0.67 0 0.34 0 0 Z " fill="#C9EBF6" transform="translate(191,169)"/>
<path d="M0 0 C2.97 0 5.94 0 9 0 C9.33 0.99 9.66 1.98 10 3 C6.7 2.34 3.4 1.68 0 1 C0 0.67 0 0.34 0 0 Z " fill="#5296BD" transform="translate(267,189)"/>
<path d="M0 0 C2.475 0.495 2.475 0.495 5 1 C4.01 1.495 4.01 1.495 3 2 C2.01 1.34 1.02 0.68 0 0 Z " fill="#11559E" transform="translate(456,2)"/>
<path d="M0 0 C4 1 4 1 4 1 Z " fill="#12549D" transform="translate(450,499)"/>
<path d="M0 0 C0.33 0.66 0.66 1.32 1 2 C0.01 1.67 -0.98 1.34 -2 1 C-1.34 0.67 -0.68 0.34 0 0 Z " fill="#10509A" transform="translate(472,489)"/>
<path d="M0 0 C1.485 0.99 1.485 0.99 3 2 C2.01 2 1.02 2 0 2 C0 1.34 0 0.68 0 0 Z " fill="#64CED9" transform="translate(26,488)"/>
<path d="M0 0 C1 4 1 4 1 4 Z " fill="#66D4DB" transform="translate(0,450)"/>
<path d="M0 0 C1 4 1 4 1 4 Z " fill="#0A4997" transform="translate(499,46)"/>
<path d="M0 0 C1 4 1 4 1 4 Z " fill="#63D2DB" transform="translate(0,46)"/>
<path d="M0 0 C0.99 0.33 1.98 0.66 3 1 C2.01 1 1.02 1 0 1 C0 0.67 0 0.34 0 0 Z " fill="#59CDDA" transform="translate(36,3)"/>
<path d="M0 0 C3 1 3 1 3 1 Z " fill="#5DC8D4" transform="translate(47,499)"/>
<path d="M0 0 C3 1 3 1 3 1 Z " fill="#11539B" transform="translate(456,497)"/>
<path d="M0 0 C3 1 3 1 3 1 Z " fill="#61C9D6" transform="translate(41,497)"/>
<path d="" fill="#0B4894" transform="translate(0,0)"/>
<path d="" fill="#5CD2DC" transform="translate(0,0)"/>
<path d="M0 0 C0.99 0.495 0.99 0.495 2 1 C1.01 1.495 1.01 1.495 0 2 C0 1.34 0 0.68 0 0 Z " fill="#66CFD8" transform="translate(17,18)"/>
<path d="M0 0 C0.99 0.495 0.99 0.495 2 1 C1.01 1.495 1.01 1.495 0 2 C0 1.34 0 0.68 0 0 Z " fill="#61CDD7" transform="translate(20,15)"/>
<path d="M0 0 C0.99 0.495 0.99 0.495 2 1 C1.01 1.495 1.01 1.495 0 2 C0 1.34 0 0.68 0 0 Z " fill="#5DCEDA" transform="translate(23,12)"/>
<path d="M0 0 C3 1 3 1 3 1 Z " fill="#1759A0" transform="translate(451,0)"/>
<path d="M0 0 C3 1 3 1 3 1 Z " fill="#61CAD7" transform="translate(46,0)"/>
<path d="M0 0 C2 1 2 1 2 1 Z " fill="#125399" transform="translate(454,498)"/>
<path d="M0 0 C2 1 2 1 2 1 Z " fill="#11529A" transform="translate(459,496)"/>
<path d="M0 0 C2 1 2 1 2 1 Z " fill="#10529B" transform="translate(461,495)"/>
<path d="M0 0 C2 1 2 1 2 1 Z " fill="#61CBD6" transform="translate(37,495)"/>
<path d="M0 0 C2 1 2 1 2 1 Z " fill="#61CBD5" transform="translate(35,494)"/>
<path d="M0 0 C2 1 2 1 2 1 Z " fill="#0F519C" transform="translate(465,493)"/>
<path d="M0 0 C2 1 2 1 2 1 Z " fill="#10519C" transform="translate(467,492)"/>
<path d="M0 0 C2 1 2 1 2 1 Z " fill="#63CCD8" transform="translate(30,491)"/>
<path d="M0 0 C2 1 2 1 2 1 Z " fill="#0F509A" transform="translate(474,487)"/>
<path d="M0 0 C2 1 2 1 2 1 Z " fill="#66CFD8" transform="translate(24,487)"/>
<path d="" fill="#0A4896" transform="translate(0,0)"/>
<path d="" fill="#0A4896" transform="translate(0,0)"/>
<path d="" fill="#62D2DB" transform="translate(0,0)"/>
<path d="" fill="#63D1D9" transform="translate(0,0)"/>
<path d="" fill="#0A4994" transform="translate(0,0)"/>
<path d="" fill="#5DD3DE" transform="translate(0,0)"/>
<path d="" fill="#0A4995" transform="translate(0,0)"/>
<path d="" fill="#5DD1DB" transform="translate(0,0)"/>
<path d="" fill="#63D0D9" transform="translate(0,0)"/>
<path d="" fill="#5FD0D9" transform="translate(0,0)"/>
<path d="" fill="#55CEDB" transform="translate(0,0)"/>
<path d="M0 0 C2 1 2 1 2 1 Z " fill="#0F4F98" transform="translate(474,12)"/>
<path d="M0 0 C2 1 2 1 2 1 Z " fill="#63CCD5" transform="translate(28,9)"/>
<path d="M0 0 C2 1 2 1 2 1 Z " fill="#11529A" transform="translate(468,8)"/>
<path d="M0 0 C2 1 2 1 2 1 Z " fill="#115199" transform="translate(465,6)"/>
<path d="M0 0 C2 1 2 1 2 1 Z " fill="#5ECAD5" transform="translate(33,6)"/>
<path d="M0 0 C2 1 2 1 2 1 Z " fill="#105199" transform="translate(463,5)"/>
<path d="M0 0 C2 1 2 1 2 1 Z " fill="#60CAD5" transform="translate(35,5)"/>
<path d="M0 0 C2 1 2 1 2 1 Z " fill="#11529A" transform="translate(461,4)"/>
<path d="M0 0 C2 1 2 1 2 1 Z " fill="#60C9D5" transform="translate(39,3)"/>
<path d="M0 0 C2 1 2 1 2 1 Z " fill="#14559A" transform="translate(454,1)"/>
<path d="" fill="#62CAD5" transform="translate(0,0)"/>
<path d="" fill="#0954A9" transform="translate(0,0)"/>
<path d="" fill="#0953A9" transform="translate(0,0)"/>
<path d="" fill="#0A56AD" transform="translate(0,0)"/>
<path d="" fill="#52CEDD" transform="translate(0,0)"/>
<path d="" fill="#63CDD7" transform="translate(0,0)"/>
<path d="" fill="#10519B" transform="translate(0,0)"/>
<path d="" fill="#64CDD9" transform="translate(0,0)"/>
<path d="" fill="#55D2DF" transform="translate(0,0)"/>
<path d="" fill="#125299" transform="translate(0,0)"/>
<path d="" fill="#0F509B" transform="translate(0,0)"/>
<path d="" fill="#0F509C" transform="translate(0,0)"/>
<path d="" fill="#0852A8" transform="translate(0,0)"/>
<path d="" fill="#0857B1" transform="translate(0,0)"/>
<path d="" fill="#0F4F9A" transform="translate(0,0)"/>
<path d="" fill="#65CFD8" transform="translate(0,0)"/>
<path d="" fill="#0852A8" transform="translate(0,0)"/>
<path d="" fill="#0D4E9A" transform="translate(0,0)"/>
<path d="" fill="#65CED8" transform="translate(0,0)"/>
<path d="" fill="#0D4D9A" transform="translate(0,0)"/>
<path d="" fill="#64CFD8" transform="translate(0,0)"/>
<path d="" fill="#53D4E2" transform="translate(0,0)"/>
<path d="" fill="#0C4D9A" transform="translate(0,0)"/>
<path d="" fill="#64D0D8" transform="translate(0,0)"/>
<path d="" fill="#0C4C99" transform="translate(0,0)"/>
<path d="" fill="#64D0D8" transform="translate(0,0)"/>
<path d="" fill="#0C4C99" transform="translate(0,0)"/>
<path d="" fill="#65D0D8" transform="translate(0,0)"/>
<path d="" fill="#0856B0" transform="translate(0,0)"/>
<path d="" fill="#0C4C99" transform="translate(0,0)"/>
<path d="" fill="#65D1D9" transform="translate(0,0)"/>
<path d="" fill="#0B4C99" transform="translate(0,0)"/>
<path d="" fill="#65D0D9" transform="translate(0,0)"/>
<path d="" fill="#0F4E99" transform="translate(0,0)"/>
<path d="" fill="#0B4C99" transform="translate(0,0)"/>
<path d="" fill="#65D1D9" transform="translate(0,0)"/>
<path d="" fill="#044FA6" transform="translate(0,0)"/>
<path d="" fill="#66D2DA" transform="translate(0,0)"/>
<path d="" fill="#084C9E" transform="translate(0,0)"/>
<path d="" fill="#094A95" transform="translate(0,0)"/>
<path d="" fill="#55CFDA" transform="translate(0,0)"/>
<path d="" fill="#56D2DE" transform="translate(0,0)"/>
<path d="" fill="#55CFDA" transform="translate(0,0)"/>
<path d="" fill="#65D2DA" transform="translate(0,0)"/>
<path d="" fill="#0854AE" transform="translate(0,0)"/>
<path d="" fill="#0852AA" transform="translate(0,0)"/>
<path d="" fill="#0B4B97" transform="translate(0,0)"/>
<path d="" fill="#65D0D9" transform="translate(0,0)"/>
<path d="" fill="#0C4C97" transform="translate(0,0)"/>
<path d="" fill="#65D0D8" transform="translate(0,0)"/>
<path d="" fill="#56D2DE" transform="translate(0,0)"/>
<path d="" fill="#0C4C98" transform="translate(0,0)"/>
<path d="" fill="#65D0D8" transform="translate(0,0)"/>
<path d="" fill="#0D4C98" transform="translate(0,0)"/>
<path d="" fill="#56CFDC" transform="translate(0,0)"/>
<path d="" fill="#0E4D98" transform="translate(0,0)"/>
<path d="" fill="#0E4D98" transform="translate(0,0)"/>
<path d="" fill="#64CFD8" transform="translate(0,0)"/>
<path d="" fill="#0E4D98" transform="translate(0,0)"/>
<path d="" fill="#63CDD7" transform="translate(0,0)"/>
<path d="" fill="#55D3E0" transform="translate(0,0)"/>
<path d="" fill="#56D0DD" transform="translate(0,0)"/>
<path d="" fill="#0757B2" transform="translate(0,0)"/>
<path d="" fill="#0F509B" transform="translate(0,0)"/>
<path d="" fill="#63CDD8" transform="translate(0,0)"/>
<path d="" fill="#55D0DD" transform="translate(0,0)"/>
<path d="" fill="#64CED8" transform="translate(0,0)"/>
<path d="" fill="#084FA1" transform="translate(0,0)"/>
<path d="" fill="#64CDD8" transform="translate(0,0)"/>
<path d="" fill="#11519A" transform="translate(0,0)"/>
<path d="" fill="#63CCD6" transform="translate(0,0)"/>
<path d="" fill="#0A57AE" transform="translate(0,0)"/>
<path d="" fill="#0A55A9" transform="translate(0,0)"/>
<path d="" fill="#53CCDA" transform="translate(0,0)"/>
<path d="" fill="#165AA3" transform="translate(0,0)"/>
</svg>
